<svg xmlns="http://www.w3.org/2000/svg" viewBox="0 0 868 28" width="868" height="28"><g><defs><clipPath id="clip_frame0_path_3"><path d="M5.688 22.215l-.022.017-.019.019c-.424.424-1.147.124-1.147-.474V8.605c0-.828.672-1.5 1.5-1.5h16c.828 0 1.5.672 1.5 1.5v10.4c0 .828-.672 1.5-1.5 1.5H8.702c-.568 0-1.119.193-1.562.548l-1.452 1.162z"/></clipPath></defs><path d="M5.688 22.215l-.022.017-.019.019c-.424.424-1.147.124-1.147-.474V8.605c0-.828.672-1.5 1.5-1.5h16c.828 0 1.5.672 1.5 1.5v10.4c0 .828-.672 1.5-1.5 1.5H8.702c-.568 0-1.119.193-1.562.548l-1.452 1.162z" fill="none" stroke="#000000"/><path clip-path="url(#clip_frame0_path_3)" d="M13.417 23.665c-3.734-.601-8.945-.25-11.084 0v2.002H24.5v-2.002c-2.333.251-7.35.601-11.083 0z" fill="#000000"/><path d="M2.333 9.333h16.334m-16.334 0h16.334" fill="#000000" stroke="#ffffff" stroke-width="2.333333" stroke-dasharray="0,16.333333338000003" stroke-dashoffset="16.333333"/><path d="M2.333 12.833h14" fill="#000000" stroke="#ffffff" stroke-width="2.333333" stroke-dasharray="0,14.000000003999999" stroke-dashoffset="14"/><path d="M2.333 16.333H14" fill="#000000" stroke="#ffffff" stroke-width="2.333333" stroke-dasharray="0,11.66666667" stroke-dashoffset="11.666667"/></g><g transform="translate(28)"><defs><clipPath id="clip_frame1_path_3"><path d="M5.688 22.215l-.022.017-.019.019c-.424.424-1.147.124-1.147-.474V8.605c0-.828.672-1.5 1.5-1.5h16c.828 0 1.5.672 1.5 1.5v10.4c0 .828-.672 1.5-1.5 1.5H8.702c-.568 0-1.119.193-1.562.548l-1.452 1.162z"/></clipPath></defs><path d="M5.688 22.215l-.022.017-.019.019c-.424.424-1.147.124-1.147-.474V8.605c0-.828.672-1.5 1.5-1.5h16c.828 0 1.5.672 1.5 1.5v10.4c0 .828-.672 1.5-1.5 1.5H8.702c-.568 0-1.119.193-1.562.548l-1.452 1.162z" fill="none" stroke="#000000"/><path clip-path="url(#clip_frame1_path_3)" d="M13.417 23.615c-3.734-.616-8.945-.256-11.084 0v2.052H24.5v-2.052c-2.333.257-7.35.616-11.083 0z" fill="#000000"/><path d="M2.333 9.333h16.334m-16.334 0h16.334" fill="#000000" stroke="#ffffff" stroke-width="2.333333" stroke-dasharray="0,16.333333338000003" stroke-dashoffset="16.333333"/><path d="M2.333 12.833h14" fill="#000000" stroke="#ffffff" stroke-width="2.333333" stroke-dasharray="0,14.000000003999999" stroke-dashoffset="14"/><path d="M2.333 16.333H14" fill="#000000" stroke="#ffffff" stroke-width="2.333333" stroke-dasharray="0,11.66666667" stroke-dashoffset="11.666667"/></g><g transform="translate(56)"><defs><clipPath id="clip_frame2_path_3"><path d="M5.688 22.215l-.022.017-.019.019c-.424.424-1.147.124-1.147-.474V8.605c0-.828.672-1.5 1.5-1.5h16c.828 0 1.5.672 1.5 1.5v10.4c0 .828-.672 1.5-1.5 1.5H8.702c-.568 0-1.119.193-1.562.548l-1.452 1.162z"/></clipPath></defs><path d="M5.688 22.215l-.022.017-.019.019c-.424.424-1.147.124-1.147-.474V8.605c0-.828.672-1.5 1.5-1.5h16c.828 0 1.5.672 1.5 1.5v10.4c0 .828-.672 1.5-1.5 1.5H8.702c-.568 0-1.119.193-1.562.548l-1.452 1.162z" fill="none" stroke="#000000"/><path clip-path="url(#clip_frame2_path_3)" d="M13.417 23.452c-3.734-.665-8.945-.277-11.084 0v2.215H24.5v-2.215c-2.333.277-7.35.664-11.083 0z" fill="#000000"/><path d="M2.333 9.333h16.334m-16.334 0h16.334" fill="#000000" stroke="#ffffff" stroke-width="2.333333" stroke-dasharray="0,16.333333338000003" stroke-dashoffset="16.333333"/><path d="M2.333 12.833h14" fill="#000000" stroke="#ffffff" stroke-width="2.333333" stroke-dasharray="0,14.000000003999999" stroke-dashoffset="14"/><path d="M2.333 16.333H14" fill="#000000" stroke="#ffffff" stroke-width="2.333333" stroke-dasharray="0,11.66666667" stroke-dashoffset="11.666667"/></g><g transform="translate(84)"><defs><clipPath id="clip_frame3_path_3"><path d="M5.688 22.215l-.022.017-.019.019c-.424.424-1.147.124-1.147-.474V8.605c0-.828.672-1.5 1.5-1.5h16c.828 0 1.5.672 1.5 1.5v10.4c0 .828-.672 1.5-1.5 1.5H8.702c-.568 0-1.119.193-1.562.548l-1.452 1.162z"/></clipPath></defs><path d="M5.688 22.215l-.022.017-.019.019c-.424.424-1.147.124-1.147-.474V8.605c0-.828.672-1.5 1.5-1.5h16c.828 0 1.5.672 1.5 1.5v10.4c0 .828-.672 1.5-1.5 1.5H8.702c-.568 0-1.119.193-1.562.548l-1.452 1.162z" fill="none" stroke="#000000"/><path clip-path="url(#clip_frame3_path_3)" d="M13.417 23.147c-3.734-.756-8.945-.314-11.084 0v2.52H24.5v-2.52c-2.333.315-7.35.756-11.083 0z" fill="#000000"/><path d="M2.333 9.333h16.334m-16.334 0h16.334" fill="#000000" stroke="#ffffff" stroke-width="2.333333" stroke-dasharray="0,16.333333338000003" stroke-dashoffset="16.333333"/><path d="M2.333 12.833h14" fill="#000000" stroke="#ffffff" stroke-width="2.333333" stroke-dasharray="0,14.000000003999999" stroke-dashoffset="14"/><path d="M2.333 16.333H14" fill="#000000" stroke="#ffffff" stroke-width="2.333333" stroke-dasharray="0,11.66666667" stroke-dashoffset="11.666667"/></g><g transform="translate(112)"><defs><clipPath id="clip_frame4_path_3"><path d="M5.688 22.215l-.022.017-.019.019c-.424.424-1.147.124-1.147-.474V8.605c0-.828.672-1.5 1.5-1.5h16c.828 0 1.5.672 1.5 1.5v10.4c0 .828-.672 1.5-1.5 1.5H8.702c-.568 0-1.119.193-1.562.548l-1.452 1.162z"/></clipPath></defs><path d="M5.688 22.215l-.022.017-.019.019c-.424.424-1.147.124-1.147-.474V8.605c0-.828.672-1.5 1.5-1.5h16c.828 0 1.5.672 1.5 1.5v10.4c0 .828-.672 1.5-1.5 1.5H8.702c-.568 0-1.119.193-1.562.548l-1.452 1.162z" fill="none" stroke="#000000"/><path clip-path="url(#clip_frame4_path_3)" d="M13.417 22.665c-3.734-.901-8.945-.374-11.084 0v3.002H24.5v-3.002c-2.333.376-7.35.901-11.083 0z" fill="#000000"/><path d="M2.333 9.333h16.334m-16.334 0h16.334" fill="#000000" stroke="#ffffff" stroke-width="2.333333" stroke-dasharray="0,16.333333338000003" stroke-dashoffset="16.333333"/><path d="M2.333 12.833h14" fill="#000000" stroke="#ffffff" stroke-width="2.333333" stroke-dasharray="0,14.000000003999999" stroke-dashoffset="14"/><path d="M2.333 16.333H14" fill="#000000" stroke="#ffffff" stroke-width="2.333333" stroke-dasharray="0,11.66666667" stroke-dashoffset="11.666667"/></g><g transform="translate(140)"><defs><clipPath id="clip_frame5_path_3"><path d="M5.688 22.215l-.022.017-.019.019c-.424.424-1.147.124-1.147-.474V8.605c0-.828.672-1.5 1.5-1.5h16c.828 0 1.5.672 1.5 1.5v10.4c0 .828-.672 1.5-1.5 1.5H8.702c-.568 0-1.119.193-1.562.548l-1.452 1.162z"/></clipPath></defs><path d="M5.688 22.215l-.022.017-.019.019c-.424.424-1.147.124-1.147-.474V8.605c0-.828.672-1.5 1.5-1.5h16c.828 0 1.5.672 1.5 1.5v10.4c0 .828-.672 1.5-1.5 1.5H8.702c-.568 0-1.119.193-1.562.548l-1.452 1.162z" fill="none" stroke="#000000"/><path clip-path="url(#clip_frame5_path_3)" d="M13.417 21.961c-3.734-1.112-8.945-.463-11.084 0v3.706H24.5v-3.706c-2.333.464-7.35 1.112-11.083 0z" fill="#000000"/><path d="M2.333 9.333h16.334m-16.334 0h16.334" fill="#000000" stroke="#ffffff" stroke-width="2.333333" stroke-dasharray="0,16.333333338000003" stroke-dashoffset="16.333333"/><path d="M2.333 12.833h14" fill="#000000" stroke="#ffffff" stroke-width="2.333333" stroke-dasharray="0,14.000000003999999" stroke-dashoffset="14"/><path d="M2.333 16.333H14" fill="#000000" stroke="#ffffff" stroke-width="2.333333" stroke-dasharray="0,11.66666667" stroke-dashoffset="11.666667"/></g><g transform="translate(168)"><defs><clipPath id="clip_frame6_path_3"><path d="M5.688 22.215l-.022.017-.019.019c-.424.424-1.147.124-1.147-.474V8.605c0-.828.672-1.5 1.5-1.5h16c.828 0 1.5.672 1.5 1.5v10.4c0 .828-.672 1.5-1.5 1.5H8.702c-.568 0-1.119.193-1.562.548l-1.452 1.162z"/></clipPath></defs><path d="M5.688 22.215l-.022.017-.019.019c-.424.424-1.147.124-1.147-.474V8.605c0-.828.672-1.5 1.5-1.5h16c.828 0 1.5.672 1.5 1.5v10.4c0 .828-.672 1.5-1.5 1.5H8.702c-.568 0-1.119.193-1.562.548l-1.452 1.162z" fill="none" stroke="#000000"/><path clip-path="url(#clip_frame6_path_3)" d="M13.417 20.983c-3.734-1.405-8.945-.584-11.084 0v4.684H24.5v-4.684c-2.333.586-7.35 1.406-11.083 0z" fill="#000000"/><path d="M2.333 9.333h16.334m-16.334 0h16.334" fill="#000000" stroke="#ffffff" stroke-width="2.333333" stroke-dasharray="0,16.333333338000003" stroke-dashoffset="16.333333"/><path d="M2.333 12.833h14" fill="#000000" stroke="#ffffff" stroke-width="2.333333" stroke-dasharray="0,14.000000003999999" stroke-dashoffset="14"/><path d="M2.333 16.333H14" fill="#000000" stroke="#ffffff" stroke-width="2.333333" stroke-dasharray="0,11.66666667" stroke-dashoffset="11.666667"/></g><g transform="translate(196)"><defs><clipPath id="clip_frame7_path_3"><path d="M5.688 22.215l-.022.017-.019.019c-.424.424-1.147.124-1.147-.474V8.605c0-.828.672-1.5 1.5-1.5h16c.828 0 1.5.672 1.5 1.5v10.4c0 .828-.672 1.5-1.5 1.5H8.702c-.568 0-1.119.193-1.562.548l-1.452 1.162z"/></clipPath></defs><path d="M5.688 22.215l-.022.017-.019.019c-.424.424-1.147.124-1.147-.474V8.605c0-.828.672-1.5 1.5-1.5h16c.828 0 1.5.672 1.5 1.5v10.4c0 .828-.672 1.5-1.5 1.5H8.702c-.568 0-1.119.193-1.562.548l-1.452 1.162z" fill="none" stroke="#000000"/><path clip-path="url(#clip_frame7_path_3)" d="M13.417 19.692c-3.734-1.793-8.945-.746-11.084 0v5.975H24.5v-5.975c-2.333.747-7.35 1.793-11.083 0z" fill="#000000"/><path d="M2.333 9.333h16.334m-16.334 0h16.334" fill="#000000" stroke="#ffffff" stroke-width="2.333333" stroke-dasharray="0,16.333333338000003" stroke-dashoffset="16.333333"/><path d="M2.333 12.833h14" fill="#000000" stroke="#ffffff" stroke-width="2.333333" stroke-dasharray="0,14.000000003999999" stroke-dashoffset="14"/><path d="M2.333 16.333H14" fill="#000000" stroke="#ffffff" stroke-width="2.333333" stroke-dasharray="0,11.66666667" stroke-dashoffset="11.666667"/></g><g transform="translate(224)"><defs><clipPath id="clip_frame8_path_3"><path d="M5.688 22.215l-.022.017-.019.019c-.424.424-1.147.124-1.147-.474V8.605c0-.828.672-1.5 1.5-1.5h16c.828 0 1.5.672 1.5 1.5v10.4c0 .828-.672 1.5-1.5 1.5H8.702c-.568 0-1.119.193-1.562.548l-1.452 1.162z"/></clipPath></defs><path d="M5.688 22.215l-.022.017-.019.019c-.424.424-1.147.124-1.147-.474V8.605c0-.828.672-1.5 1.5-1.5h16c.828 0 1.5.672 1.5 1.5v10.4c0 .828-.672 1.5-1.5 1.5H8.702c-.568 0-1.119.193-1.562.548l-1.452 1.162z" fill="none" stroke="#000000"/><path clip-path="url(#clip_frame8_path_3)" d="M13.417 18.099c-3.734-2.271-8.945-.946-11.084 0v7.568H24.5v-7.568c-2.333.946-7.35 2.27-11.083 0z" fill="#000000"/><path d="M2.333 9.333h16.334m-16.334 0h16.334" fill="#000000" stroke="#ffffff" stroke-width="2.333333" stroke-dasharray="0,16.333333338000003" stroke-dashoffset="16.333333"/><path d="M2.333 12.833h14" fill="#000000" stroke="#ffffff" stroke-width="2.333333" stroke-dasharray="0,14.000000003999999" stroke-dashoffset="14"/><path d="M2.333 16.333H14" fill="#000000" stroke="#ffffff" stroke-width="2.333333" stroke-dasharray="0,11.66666667" stroke-dashoffset="11.666667"/></g><g transform="translate(252)"><defs><clipPath id="clip_frame9_path_3"><path d="M5.688 22.215l-.022.017-.019.019c-.424.424-1.147.124-1.147-.474V8.605c0-.828.672-1.5 1.5-1.5h16c.828 0 1.5.672 1.5 1.5v10.4c0 .828-.672 1.5-1.5 1.5H8.702c-.568 0-1.119.193-1.562.548l-1.452 1.162z"/></clipPath></defs><path d="M5.688 22.215l-.022.017-.019.019c-.424.424-1.147.124-1.147-.474V8.605c0-.828.672-1.5 1.5-1.5h16c.828 0 1.5.672 1.5 1.5v10.4c0 .828-.672 1.5-1.5 1.5H8.702c-.568 0-1.119.193-1.562.548l-1.452 1.162z" fill="none" stroke="#000000"/><path clip-path="url(#clip_frame9_path_3)" d="M13.417 16.312c-3.734-2.806-8.945-1.168-11.084 0v9.355H24.5v-9.355c-2.333 1.17-7.35 2.807-11.083 0z" fill="#000000"/><path d="M2.333 9.333h16.334m-16.334 0h16.334" fill="#000000" stroke="#ffffff" stroke-width="2.333333" stroke-dasharray="0,16.333333338000003" stroke-dashoffset="16.333333"/><path d="M2.333 12.833h14" fill="#000000" stroke="#ffffff" stroke-width="2.333333" stroke-dasharray="0,14.000000003999999" stroke-dashoffset="14"/><path d="M2.333 16.333H14" fill="#000000" stroke="#ffffff" stroke-width="2.333333" stroke-dasharray="0,11.66666667" stroke-dashoffset="11.666667"/></g><g transform="translate(280)"><defs><clipPath id="clip_frame10_path_3"><path d="M5.688 22.215l-.022.017-.019.019c-.424.424-1.147.124-1.147-.474V8.605c0-.828.672-1.5 1.5-1.5h16c.828 0 1.5.672 1.5 1.5v10.4c0 .828-.672 1.5-1.5 1.5H8.702c-.568 0-1.119.193-1.562.548l-1.452 1.162z"/></clipPath></defs><path d="M5.688 22.215l-.022.017-.019.019c-.424.424-1.147.124-1.147-.474V8.605c0-.828.672-1.5 1.5-1.5h16c.828 0 1.5.672 1.5 1.5v10.4c0 .828-.672 1.5-1.5 1.5H8.702c-.568 0-1.119.193-1.562.548l-1.452 1.162z" fill="none" stroke="#000000"/><path clip-path="url(#clip_frame10_path_3)" d="M13.417 14.512c-3.734-3.347-8.945-1.394-11.084 0v11.155H24.5V14.512c-2.333 1.395-7.35 3.346-11.083 0z" fill="#000000"/><path d="M2.333 9.333h16.334m-16.334 0h16.334" fill="#000000" stroke="#ffffff" stroke-width="2.333333" stroke-dasharray="0,16.333333338000003" stroke-dashoffset="16.333333"/><path d="M2.333 12.833h14" fill="#000000" stroke="#ffffff" stroke-width="2.333333" stroke-dasharray="0,14.000000003999999" stroke-dashoffset="14"/><path d="M2.333 16.333H14" fill="#000000" stroke="#ffffff" stroke-width="2.333333" stroke-dasharray="0,11.66666667" stroke-dashoffset="11.666667"/></g><g transform="translate(308)"><defs><clipPath id="clip_frame11_path_3"><path d="M5.688 22.215l-.022.017-.019.019c-.424.424-1.147.124-1.147-.474V8.605c0-.828.672-1.5 1.5-1.5h16c.828 0 1.5.672 1.5 1.5v10.4c0 .828-.672 1.5-1.5 1.5H8.702c-.568 0-1.119.193-1.562.548l-1.452 1.162z"/></clipPath></defs><path d="M5.688 22.215l-.022.017-.019.019c-.424.424-1.147.124-1.147-.474V8.605c0-.828.672-1.5 1.5-1.5h16c.828 0 1.5.672 1.5 1.5v10.4c0 .828-.672 1.5-1.5 1.5H8.702c-.568 0-1.119.193-1.562.548l-1.452 1.162z" fill="none" stroke="#000000"/><path clip-path="url(#clip_frame11_path_3)" d="M13.417 12.846c-3.734-3.846-8.945-1.602-11.084 0v12.821H24.5V12.846c-2.333 1.603-7.35 3.846-11.083 0z" fill="#000000"/><path d="M2.333 9.333h16.334m-16.334 0h16.334" fill="#000000" stroke="#ffffff" stroke-width="2.333333" stroke-dasharray="0,16.333333338000003" stroke-dashoffset="16.333333"/><path d="M2.333 12.833h14" fill="#000000" stroke="#ffffff" stroke-width="2.333333" stroke-dasharray="0,14.000000003999999" stroke-dashoffset="14"/><path d="M2.333 16.333H14" fill="#000000" stroke="#ffffff" stroke-width="2.333333" stroke-dasharray="0,11.66666667" stroke-dashoffset="11.666667"/></g><g transform="translate(336)"><defs><clipPath id="clip_frame12_path_3"><path d="M5.688 22.215l-.022.017-.019.019c-.424.424-1.147.124-1.147-.474V8.605c0-.828.672-1.5 1.5-1.5h16c.828 0 1.5.672 1.5 1.5v10.4c0 .828-.672 1.5-1.5 1.5H8.702c-.568 0-1.119.193-1.562.548l-1.452 1.162z"/></clipPath></defs><path d="M5.688 22.215l-.022.017-.019.019c-.424.424-1.147.124-1.147-.474V8.605c0-.828.672-1.5 1.5-1.5h16c.828 0 1.5.672 1.5 1.5v10.4c0 .828-.672 1.5-1.5 1.5H8.702c-.568 0-1.119.193-1.562.548l-1.452 1.162z" fill="none" stroke="#000000"/><path clip-path="url(#clip_frame12_path_3)" d="M13.417 11.382c-3.734-4.286-8.945-1.785-11.084 0v14.285H24.5V11.382c-2.333 1.786-7.35 4.286-11.083 0z" fill="#000000"/><path d="M2.333 9.333h16.334m-16.334 0h16.334" fill="#000000" stroke="#ffffff" stroke-width="2.333333" stroke-dasharray="0,16.333333338000003" stroke-dashoffset="16.333333"/><path d="M2.333 12.833h14" fill="#000000" stroke="#ffffff" stroke-width="2.333333" stroke-dasharray="0,14.000000003999999" stroke-dashoffset="14"/><path d="M2.333 16.333H14" fill="#000000" stroke="#ffffff" stroke-width="2.333333" stroke-dasharray="0,11.66666667" stroke-dashoffset="11.666667"/></g><g transform="translate(364)"><defs><clipPath id="clip_frame13_path_3"><path d="M5.688 22.215l-.022.017-.019.019c-.424.424-1.147.124-1.147-.474V8.605c0-.828.672-1.5 1.5-1.5h16c.828 0 1.5.672 1.5 1.5v10.4c0 .828-.672 1.5-1.5 1.5H8.702c-.568 0-1.119.193-1.562.548l-1.452 1.162z"/></clipPath></defs><path d="M5.688 22.215l-.022.017-.019.019c-.424.424-1.147.124-1.147-.474V8.605c0-.828.672-1.5 1.5-1.5h16c.828 0 1.5.672 1.5 1.5v10.4c0 .828-.672 1.5-1.5 1.5H8.702c-.568 0-1.119.193-1.562.548l-1.452 1.162z" fill="none" stroke="#000000"/><path clip-path="url(#clip_frame13_path_3)" d="M13.417 10.124c-3.734-4.663-8.945-1.942-11.084 0v15.543H24.5V10.124c-2.333 1.944-7.35 4.663-11.083 0z" fill="#000000"/><path d="M2.333 9.333h16.334m-16.334 0h16.334" fill="#000000" stroke="#ffffff" stroke-width="2.333333" stroke-dasharray="0,16.333333338000003" stroke-dashoffset="16.333333"/><path d="M2.333 12.833h14" fill="#000000" stroke="#ffffff" stroke-width="2.333333" stroke-dasharray="0,14.000000003999999" stroke-dashoffset="14"/><path d="M2.333 16.333H14" fill="#000000" stroke="#ffffff" stroke-width="2.333333" stroke-dasharray="0,11.66666667" stroke-dashoffset="11.666667"/></g><g transform="translate(392)"><defs><clipPath id="clip_frame14_path_3"><path d="M5.688 22.215l-.022.017-.019.019c-.424.424-1.147.124-1.147-.474V8.605c0-.828.672-1.5 1.5-1.5h16c.828 0 1.5.672 1.5 1.5v10.4c0 .828-.672 1.5-1.5 1.5H8.702c-.568 0-1.119.193-1.562.548l-1.452 1.162z"/></clipPath></defs><path d="M5.688 22.215l-.022.017-.019.019c-.424.424-1.147.124-1.147-.474V8.605c0-.828.672-1.5 1.5-1.5h16c.828 0 1.5.672 1.5 1.5v10.4c0 .828-.672 1.5-1.5 1.5H8.702c-.568 0-1.119.193-1.562.548l-1.452 1.162z" fill="none" stroke="#000000"/><path clip-path="url(#clip_frame14_path_3)" d="M13.417 9.052c-3.734-4.984-8.945-2.076-11.084 0v16.615H24.5V9.052c-2.333 2.078-7.35 4.985-11.083 0z" fill="#000000"/><path d="M2.333 9.333h16.334m-16.334 0h16.334" fill="#000000" stroke="#ffffff" stroke-width="2.333333" stroke-dasharray="0.0008504802730176743,16.332482857726983" stroke-dashoffset="16.333333"/><path d="M2.333 12.833h14" fill="#000000" stroke="#ffffff" stroke-width="2.333333" stroke-dasharray="0,14.000000003999999" stroke-dashoffset="14"/><path d="M2.333 16.333H14" fill="#000000" stroke="#ffffff" stroke-width="2.333333" stroke-dasharray="0,11.66666667" stroke-dashoffset="11.666667"/></g><g transform="translate(420)"><defs><clipPath id="clip_frame15_path_3"><path d="M5.688 22.215l-.022.017-.019.019c-.424.424-1.147.124-1.147-.474V8.605c0-.828.672-1.5 1.5-1.5h16c.828 0 1.5.672 1.5 1.5v10.4c0 .828-.672 1.5-1.5 1.5H8.702c-.568 0-1.119.193-1.562.548l-1.452 1.162z"/></clipPath></defs><path d="M5.688 22.215l-.022.017-.019.019c-.424.424-1.147.124-1.147-.474V8.605c0-.828.672-1.5 1.5-1.5h16c.828 0 1.5.672 1.5 1.5v10.4c0 .828-.672 1.5-1.5 1.5H8.702c-.568 0-1.119.193-1.562.548l-1.452 1.162z" fill="none" stroke="#000000"/><path clip-path="url(#clip_frame15_path_3)" d="M13.417 8.14c-3.734-5.258-8.945-2.191-11.084 0v17.527H24.5V8.14c-2.333 2.191-7.35 5.258-11.083 0z" fill="#000000"/><path d="M2.333 9.333h16.334m-16.334 0h16.334" fill="#000000" stroke="#ffffff" stroke-width="2.333333" stroke-dasharray="0.1765991467270805,16.15673419127292" stroke-dashoffset="16.333333"/><path d="M2.333 12.833h14" fill="#000000" stroke="#ffffff" stroke-width="2.333333" stroke-dasharray="0,14.000000003999999" stroke-dashoffset="14"/><path d="M2.333 16.333H14" fill="#000000" stroke="#ffffff" stroke-width="2.333333" stroke-dasharray="0,11.66666667" stroke-dashoffset="11.666667"/></g><g transform="translate(448)"><defs><clipPath id="clip_frame16_path_3"><path d="M5.688 22.215l-.022.017-.019.019c-.424.424-1.147.124-1.147-.474V8.605c0-.828.672-1.5 1.5-1.5h16c.828 0 1.5.672 1.5 1.5v10.4c0 .828-.672 1.5-1.5 1.5H8.702c-.568 0-1.119.193-1.562.548l-1.452 1.162z"/></clipPath></defs><path d="M5.688 22.215l-.022.017-.019.019c-.424.424-1.147.124-1.147-.474V8.605c0-.828.672-1.5 1.5-1.5h16c.828 0 1.5.672 1.5 1.5v10.4c0 .828-.672 1.5-1.5 1.5H8.702c-.568 0-1.119.193-1.562.548l-1.452 1.162z" fill="none" stroke="#000000"/><path clip-path="url(#clip_frame16_path_3)" d="M13.417 7.362c-3.734-5.492-8.945-2.288-11.084 0v18.305H24.5V7.362c-2.333 2.288-7.35 5.491-11.083 0z" fill="#000000"/><path d="M2.333 9.333h16.334m-16.334 0h16.334" fill="#000000" stroke="#ffffff" stroke-width="2.333333" stroke-dasharray="0.7598539127811578,15.573479425218844" stroke-dashoffset="16.333333"/><path d="M2.333 12.833h14" fill="#000000" stroke="#ffffff" stroke-width="2.333333" stroke-dasharray="0,14.000000003999999" stroke-dashoffset="14"/><path d="M2.333 16.333H14" fill="#000000" stroke="#ffffff" stroke-width="2.333333" stroke-dasharray="0,11.66666667" stroke-dashoffset="11.666667"/></g><g transform="translate(476)"><defs><clipPath id="clip_frame17_path_3"><path d="M5.688 22.215l-.022.017-.019.019c-.424.424-1.147.124-1.147-.474V8.605c0-.828.672-1.5 1.5-1.5h16c.828 0 1.5.672 1.5 1.5v10.4c0 .828-.672 1.5-1.5 1.5H8.702c-.568 0-1.119.193-1.562.548l-1.452 1.162z"/></clipPath></defs><path d="M5.688 22.215l-.022.017-.019.019c-.424.424-1.147.124-1.147-.474V8.605c0-.828.672-1.5 1.5-1.5h16c.828 0 1.5.672 1.5 1.5v10.4c0 .828-.672 1.5-1.5 1.5H8.702c-.568 0-1.119.193-1.562.548l-1.452 1.162z" fill="none" stroke="#000000"/><path clip-path="url(#clip_frame17_path_3)" d="M13.417 6.697c-3.734-5.691-8.945-2.37-11.084 0v18.97H24.5V6.697c-2.333 2.372-7.35 5.691-11.083 0z" fill="#000000"/><path d="M2.333 9.333h16.334m-16.334 0h16.334" fill="#000000" stroke="#ffffff" stroke-width="2.333333" stroke-dasharray="1.962047515628103,14.3712858223719" stroke-dashoffset="16.333333"/><path d="M2.333 12.833h14" fill="#000000" stroke="#ffffff" stroke-width="2.333333" stroke-dasharray="0,14.000000003999999" stroke-dashoffset="14"/><path d="M2.333 16.333H14" fill="#000000" stroke="#ffffff" stroke-width="2.333333" stroke-dasharray="0,11.66666667" stroke-dashoffset="11.666667"/></g><g transform="translate(504)"><defs><clipPath id="clip_frame18_path_3"><path d="M5.688 22.215l-.022.017-.019.019c-.424.424-1.147.124-1.147-.474V8.605c0-.828.672-1.5 1.5-1.5h16c.828 0 1.5.672 1.5 1.5v10.4c0 .828-.672 1.5-1.5 1.5H8.702c-.568 0-1.119.193-1.562.548l-1.452 1.162z"/></clipPath></defs><path d="M5.688 22.215l-.022.017-.019.019c-.424.424-1.147.124-1.147-.474V8.605c0-.828.672-1.5 1.5-1.5h16c.828 0 1.5.672 1.5 1.5v10.4c0 .828-.672 1.5-1.5 1.5H8.702c-.568 0-1.119.193-1.562.548l-1.452 1.162z" fill="none" stroke="#000000"/><path clip-path="url(#clip_frame18_path_3)" d="M13.417 6.13C9.683.269 4.472 3.688 2.333 6.13v19.537H24.5V6.13c-2.333 2.442-7.35 5.861-11.083 0z" fill="#000000"/><path d="M2.333 9.333h16.334m-16.334 0h16.334" fill="#000000" stroke="#ffffff" stroke-width="2.333333" stroke-dasharray="4.011562543209425,12.321770794790579" stroke-dashoffset="16.333333"/><path d="M2.333 12.833h14" fill="#000000" stroke="#ffffff" stroke-width="2.333333" stroke-dasharray="0.018945101111104413,13.981054902888895" stroke-dashoffset="14"/><path d="M2.333 16.333H14" fill="#000000" stroke="#ffffff" stroke-width="2.333333" stroke-dasharray="0,11.66666667" stroke-dashoffset="11.666667"/></g><g transform="translate(532)"><defs><clipPath id="clip_frame19_path_3"><path d="M5.688 22.215l-.022.017-.019.019c-.424.424-1.147.124-1.147-.474V8.605c0-.828.672-1.5 1.5-1.5h16c.828 0 1.5.672 1.5 1.5v10.4c0 .828-.672 1.5-1.5 1.5H8.702c-.568 0-1.119.193-1.562.548l-1.452 1.162z"/></clipPath></defs><path d="M5.688 22.215l-.022.017-.019.019c-.424.424-1.147.124-1.147-.474V8.605c0-.828.672-1.5 1.5-1.5h16c.828 0 1.5.672 1.5 1.5v10.4c0 .828-.672 1.5-1.5 1.5H8.702c-.568 0-1.119.193-1.562.548l-1.452 1.162z" fill="none" stroke="#000000"/><path clip-path="url(#clip_frame19_path_3)" d="M13.417 5.645c-3.734-6.006-8.945-2.502-11.084 0v20.022H24.5V5.645c-2.333 2.504-7.35 6.007-11.083 0z" fill="#000000"/><path d="M2.333 9.333h16.334m-16.334 0h16.334" fill="#000000" stroke="#ffffff" stroke-width="2.333333" stroke-dasharray="6.708416387833084,9.62491695016692" stroke-dashoffset="16.333333"/><path d="M2.333 12.833h14" fill="#000000" stroke="#ffffff" stroke-width="2.333333" stroke-dasharray="0.5160368608239441,13.483963143176055" stroke-dashoffset="14"/><path d="M2.333 16.333H14" fill="#000000" stroke="#ffffff" stroke-width="2.333333" stroke-dasharray="0,11.66666667" stroke-dashoffset="11.666667"/></g><g transform="translate(560)"><defs><clipPath id="clip_frame20_path_3"><path d="M5.688 22.215l-.022.017-.019.019c-.424.424-1.147.124-1.147-.474V8.605c0-.828.672-1.5 1.5-1.5h16c.828 0 1.5.672 1.5 1.5v10.4c0 .828-.672 1.5-1.5 1.5H8.702c-.568 0-1.119.193-1.562.548l-1.452 1.162z"/></clipPath></defs><path d="M5.688 22.215l-.022.017-.019.019c-.424.424-1.147.124-1.147-.474V8.605c0-.828.672-1.5 1.5-1.5h16c.828 0 1.5.672 1.5 1.5v10.4c0 .828-.672 1.5-1.5 1.5H8.702c-.568 0-1.119.193-1.562.548l-1.452 1.162z" fill="none" stroke="#000000"/><path clip-path="url(#clip_frame20_path_3)" d="M13.417 5.233c-3.734-6.13-8.945-2.554-11.084 0v20.434H24.5V5.233c-2.333 2.555-7.35 6.13-11.083 0z" fill="#000000"/><path d="M2.333 9.333h16.334m-16.334 0h16.334" fill="#000000" stroke="#ffffff" stroke-width="2.333333" stroke-dasharray="9.256982133759376,7.076351204240627" stroke-dashoffset="16.333333"/><path d="M2.333 12.833h14" fill="#000000" stroke="#ffffff" stroke-width="2.333333" stroke-dasharray="2.097485998914886,11.902514005085113" stroke-dashoffset="14"/><path d="M2.333 16.333H14" fill="#000000" stroke="#ffffff" stroke-width="2.333333" stroke-dasharray="0.001283267362146962,11.665383402637852" stroke-dashoffset="11.666667"/></g><g transform="translate(588)"><defs><clipPath id="clip_frame21_path_3"><path d="M5.688 22.215l-.022.017-.019.019c-.424.424-1.147.124-1.147-.474V8.605c0-.828.672-1.5 1.5-1.5h16c.828 0 1.5.672 1.5 1.5v10.4c0 .828-.672 1.5-1.5 1.5H8.702c-.568 0-1.119.193-1.562.548l-1.452 1.162z"/></clipPath></defs><path d="M5.688 22.215l-.022.017-.019.019c-.424.424-1.147.124-1.147-.474V8.605c0-.828.672-1.5 1.5-1.5h16c.828 0 1.5.672 1.5 1.5v10.4c0 .828-.672 1.5-1.5 1.5H8.702c-.568 0-1.119.193-1.562.548l-1.452 1.162z" fill="none" stroke="#000000"/><path clip-path="url(#clip_frame21_path_3)" d="M13.417 4.883c-3.734-6.235-8.945-2.597-11.084 0v20.784H24.5V4.883c-2.333 2.599-7.35 6.235-11.083 0z" fill="#000000"/><path d="M2.333 9.333h16.334m-16.334 0h16.334" fill="#000000" stroke="#ffffff" stroke-width="2.333333" stroke-dasharray="11.24275437446207,5.090578963537933" stroke-dashoffset="16.333333"/><path d="M2.333 12.833h14" fill="#000000" stroke="#ffffff" stroke-width="2.333333" stroke-dasharray="5.184439024455669,8.815560979544328" stroke-dashoffset="14"/><path d="M2.333 16.333H14" fill="#000000" stroke="#ffffff" stroke-width="2.333333" stroke-dasharray="0.7884141431413982,10.878252526858603" stroke-dashoffset="11.666667"/></g><g transform="translate(616)"><defs><clipPath id="clip_frame22_path_3"><path d="M5.688 22.215l-.022.017-.019.019c-.424.424-1.147.124-1.147-.474V8.605c0-.828.672-1.5 1.5-1.5h16c.828 0 1.5.672 1.5 1.5v10.4c0 .828-.672 1.5-1.5 1.5H8.702c-.568 0-1.119.193-1.562.548l-1.452 1.162z"/></clipPath></defs><path d="M5.688 22.215l-.022.017-.019.019c-.424.424-1.147.124-1.147-.474V8.605c0-.828.672-1.5 1.5-1.5h16c.828 0 1.5.672 1.5 1.5v10.4c0 .828-.672 1.5-1.5 1.5H8.702c-.568 0-1.119.193-1.562.548l-1.452 1.162z" fill="none" stroke="#000000"/><path clip-path="url(#clip_frame22_path_3)" d="M13.417 4.589c-3.734-6.324-8.945-2.634-11.084 0v21.078H24.5V4.589c-2.333 2.635-7.35 6.323-11.083 0z" fill="#000000"/><path d="M2.333 9.333h16.334m-16.334 0h16.334" fill="#000000" stroke="#ffffff" stroke-width="2.333333" stroke-dasharray="12.71844331963713,3.6148900183628734" stroke-dashoffset="16.333333"/><path d="M2.333 12.833h14" fill="#000000" stroke="#ffffff" stroke-width="2.333333" stroke-dasharray="8.39303478247444,5.606965221525559" stroke-dashoffset="14"/><path d="M2.333 16.333H14" fill="#000000" stroke="#ffffff" stroke-width="2.333333" stroke-dasharray="4.151720212827519,7.51494645717248" stroke-dashoffset="11.666667"/></g><g transform="translate(644)"><defs><clipPath id="clip_frame23_path_3"><path d="M5.688 22.215l-.022.017-.019.019c-.424.424-1.147.124-1.147-.474V8.605c0-.828.672-1.5 1.5-1.5h16c.828 0 1.5.672 1.5 1.5v10.4c0 .828-.672 1.5-1.5 1.5H8.702c-.568 0-1.119.193-1.562.548l-1.452 1.162z"/></clipPath></defs><path d="M5.688 22.215l-.022.017-.019.019c-.424.424-1.147.124-1.147-.474V8.605c0-.828.672-1.5 1.5-1.5h16c.828 0 1.5.672 1.5 1.5v10.4c0 .828-.672 1.5-1.5 1.5H8.702c-.568 0-1.119.193-1.562.548l-1.452 1.162z" fill="none" stroke="#000000"/><path clip-path="url(#clip_frame23_path_3)" d="M13.417 4.344c-3.734-6.398-8.945-2.665-11.084 0v21.323H24.5V4.344c-2.333 2.665-7.35 6.397-11.083 0z" fill="#000000"/><path d="M2.333 9.333h16.334m-16.334 0h16.334" fill="#000000" stroke="#ffffff" stroke-width="2.333333" stroke-dasharray="13.814408751500075,2.518924586499928" stroke-dashoffset="16.333333"/><path d="M2.333 12.833h14" fill="#000000" stroke="#ffffff" stroke-width="2.333333" stroke-dasharray="10.588301765413217,3.4116982385867822" stroke-dashoffset="14"/><path d="M2.333 16.333H14" fill="#000000" stroke="#ffffff" stroke-width="2.333333" stroke-dasharray="8.026945501148044,3.6397211688519566" stroke-dashoffset="11.666667"/></g><g transform="translate(672)"><defs><clipPath id="clip_frame24_path_3"><path d="M5.688 22.215l-.022.017-.019.019c-.424.424-1.147.124-1.147-.474V8.605c0-.828.672-1.5 1.5-1.5h16c.828 0 1.5.672 1.5 1.5v10.4c0 .828-.672 1.5-1.5 1.5H8.702c-.568 0-1.119.193-1.562.548l-1.452 1.162z"/></clipPath></defs><path d="M5.688 22.215l-.022.017-.019.019c-.424.424-1.147.124-1.147-.474V8.605c0-.828.672-1.5 1.5-1.5h16c.828 0 1.5.672 1.5 1.5v10.4c0 .828-.672 1.5-1.5 1.5H8.702c-.568 0-1.119.193-1.562.548l-1.452 1.162z" fill="none" stroke="#000000"/><path clip-path="url(#clip_frame24_path_3)" d="M13.417 4.142c-3.734-6.457-8.945-2.69-11.084 0v21.525H24.5V4.142c-2.333 2.691-7.35 6.458-11.083 0z" fill="#000000"/><path d="M2.333 9.333h16.334m-16.334 0h16.334" fill="#000000" stroke="#ffffff" stroke-width="2.333333" stroke-dasharray="14.630897650287457,1.7024356877125464" stroke-dashoffset="16.333333"/><path d="M2.333 12.833h14" fill="#000000" stroke="#ffffff" stroke-width="2.333333" stroke-dasharray="12.000705798194156,1.9992942058058416" stroke-dashoffset="14"/><path d="M2.333 16.333H14" fill="#000000" stroke="#ffffff" stroke-width="2.333333" stroke-dasharray="10.071464490093453,1.5952021799065474" stroke-dashoffset="11.666667"/></g><g transform="translate(700)"><defs><clipPath id="clip_frame25_path_3"><path d="M5.688 22.215l-.022.017-.019.019c-.424.424-1.147.124-1.147-.474V8.605c0-.828.672-1.5 1.5-1.5h16c.828 0 1.5.672 1.5 1.5v10.4c0 .828-.672 1.5-1.5 1.5H8.702c-.568 0-1.119.193-1.562.548l-1.452 1.162z"/></clipPath></defs><path d="M5.688 22.215l-.022.017-.019.019c-.424.424-1.147.124-1.147-.474V8.605c0-.828.672-1.5 1.5-1.5h16c.828 0 1.5.672 1.5 1.5v10.4c0 .828-.672 1.5-1.5 1.5H8.702c-.568 0-1.119.193-1.562.548l-1.452 1.162z" fill="none" stroke="#000000"/><path clip-path="url(#clip_frame25_path_3)" d="M13.417 3.98c-3.734-6.506-8.945-2.71-11.084 0v21.687H24.5V3.98c-2.333 2.711-7.35 6.506-11.083 0z" fill="#000000"/><path d="M2.333 9.333h16.334m-16.334 0h16.334" fill="#000000" stroke="#ffffff" stroke-width="2.333333" stroke-dasharray="15.236235501213418,1.0970978367865838" stroke-dashoffset="16.333333"/><path d="M2.333 12.833h14" fill="#000000" stroke="#ffffff" stroke-width="2.333333" stroke-dasharray="12.912720616477223,1.0872793875227744" stroke-dashoffset="14"/><path d="M2.333 16.333H14" fill="#000000" stroke="#ffffff" stroke-width="2.333333" stroke-dasharray="11.095784506499758,0.5708821635002423" stroke-dashoffset="11.666667"/></g><g transform="translate(728)"><defs><clipPath id="clip_frame26_path_3"><path d="M5.688 22.215l-.022.017-.019.019c-.424.424-1.147.124-1.147-.474V8.605c0-.828.672-1.5 1.5-1.5h16c.828 0 1.5.672 1.5 1.5v10.4c0 .828-.672 1.5-1.5 1.5H8.702c-.568 0-1.119.193-1.562.548l-1.452 1.162z"/></clipPath></defs><path d="M5.688 22.215l-.022.017-.019.019c-.424.424-1.147.124-1.147-.474V8.605c0-.828.672-1.5 1.5-1.5h16c.828 0 1.5.672 1.5 1.5v10.4c0 .828-.672 1.5-1.5 1.5H8.702c-.568 0-1.119.193-1.562.548l-1.452 1.162z" fill="none" stroke="#000000"/><path clip-path="url(#clip_frame26_path_3)" d="M13.417 3.854c-3.734-6.544-8.945-2.726-11.084 0v21.813H24.5V3.854c-2.333 2.727-7.35 6.544-11.083 0z" fill="#000000"/><path d="M2.333 9.333h16.334m-16.334 0h16.334" fill="#000000" stroke="#ffffff" stroke-width="2.333333" stroke-dasharray="15.677108253966871,0.6562250840331307" stroke-dashoffset="16.333333"/><path d="M2.333 12.833h14" fill="#000000" stroke="#ffffff" stroke-width="2.333333" stroke-dasharray="13.488427941813937,0.5115720621860623" stroke-dashoffset="14"/><path d="M2.333 16.333H14" fill="#000000" stroke="#ffffff" stroke-width="2.333333" stroke-dasharray="11.557934353090474,0.10873231690952605" stroke-dashoffset="11.666667"/></g><g transform="translate(756)"><defs><clipPath id="clip_frame27_path_3"><path d="M5.688 22.215l-.022.017-.019.019c-.424.424-1.147.124-1.147-.474V8.605c0-.828.672-1.5 1.5-1.5h16c.828 0 1.5.672 1.5 1.5v10.4c0 .828-.672 1.5-1.5 1.5H8.702c-.568 0-1.119.193-1.562.548l-1.452 1.162z"/></clipPath></defs><path d="M5.688 22.215l-.022.017-.019.019c-.424.424-1.147.124-1.147-.474V8.605c0-.828.672-1.5 1.5-1.5h16c.828 0 1.5.672 1.5 1.5v10.4c0 .828-.672 1.5-1.5 1.5H8.702c-.568 0-1.119.193-1.562.548l-1.452 1.162z" fill="none" stroke="#000000"/><path clip-path="url(#clip_frame27_path_3)" d="M13.417 3.76c-3.734-6.572-8.945-2.738-11.084 0v21.907H24.5V3.76c-2.333 2.739-7.35 6.572-11.083 0z" fill="#000000"/><path d="M2.333 9.333h16.334m-16.334 0h16.334" fill="#000000" stroke="#ffffff" stroke-width="2.333333" stroke-dasharray="15.986314945676165,0.3470183923238381" stroke-dashoffset="16.333333"/><path d="M2.333 12.833h14" fill="#000000" stroke="#ffffff" stroke-width="2.333333" stroke-dasharray="13.823516470985318,0.17648353301468142" stroke-dashoffset="14"/><path d="M2.333 16.333H14" fill="#000000" stroke="#ffffff" stroke-width="2.333333"/></g><g transform="translate(784)"><defs><clipPath id="clip_frame28_path_3"><path d="M5.688 22.215l-.022.017-.019.019c-.424.424-1.147.124-1.147-.474V8.605c0-.828.672-1.5 1.5-1.5h16c.828 0 1.5.672 1.5 1.5v10.4c0 .828-.672 1.5-1.5 1.5H8.702c-.568 0-1.119.193-1.562.548l-1.452 1.162z"/></clipPath></defs><path d="M5.688 22.215l-.022.017-.019.019c-.424.424-1.147.124-1.147-.474V8.605c0-.828.672-1.5 1.5-1.5h16c.828 0 1.5.672 1.5 1.5v10.4c0 .828-.672 1.5-1.5 1.5H8.702c-.568 0-1.119.193-1.562.548l-1.452 1.162z" fill="none" stroke="#000000"/><path clip-path="url(#clip_frame28_path_3)" d="M13.417 3.696C9.683-2.895 4.472.95 2.333 3.696v21.971H24.5V3.696c-2.333 2.747-7.35 6.591-11.083 0z" fill="#000000"/><path d="M2.333 9.333h16.334m-16.334 0h16.334" fill="#000000" stroke="#ffffff" stroke-width="2.333333" stroke-dasharray="16.18762670312173,0.1457066348782727" stroke-dashoffset="16.333333"/><path d="M2.333 12.833h14" fill="#000000" stroke="#ffffff" stroke-width="2.333333" stroke-dasharray="13.97753908423648,0.022460919763518477" stroke-dashoffset="14"/><path d="M2.333 16.333H14" fill="#000000" stroke="#ffffff" stroke-width="2.333333"/></g><g transform="translate(812)"><defs><clipPath id="clip_frame29_path_3"><path d="M5.688 22.215l-.022.017-.019.019c-.424.424-1.147.124-1.147-.474V8.605c0-.828.672-1.5 1.5-1.5h16c.828 0 1.5.672 1.5 1.5v10.4c0 .828-.672 1.5-1.5 1.5H8.702c-.568 0-1.119.193-1.562.548l-1.452 1.162z"/></clipPath></defs><path d="M5.688 22.215l-.022.017-.019.019c-.424.424-1.147.124-1.147-.474V8.605c0-.828.672-1.5 1.5-1.5h16c.828 0 1.5.672 1.5 1.5v10.4c0 .828-.672 1.5-1.5 1.5H8.702c-.568 0-1.119.193-1.562.548l-1.452 1.162z" fill="none" stroke="#000000"/><path clip-path="url(#clip_frame29_path_3)" d="M13.417 3.659c-3.734-6.603-8.945-2.751-11.084 0v22.008H24.5V3.659c-2.333 2.751-7.35 6.602-11.083 0z" fill="#000000"/><path d="M2.333 9.333h16.334m-16.334 0h16.334" fill="#000000" stroke="#ffffff" stroke-width="2.333333" stroke-dasharray="16.298776377466393,0.03455696053361041" stroke-dashoffset="16.333333"/><path d="M2.333 12.833h14M2.333 16.333H14" fill="#000000" stroke="#ffffff" stroke-width="2.333333"/></g><g transform="translate(840)"><defs><clipPath id="clip_frame30_path_3"><path d="M5.688 22.215l-.022.017-.019.019c-.424.424-1.147.124-1.147-.474V8.605c0-.828.672-1.5 1.5-1.5h16c.828 0 1.5.672 1.5 1.5v10.4c0 .828-.672 1.5-1.5 1.5H8.702c-.568 0-1.119.193-1.562.548l-1.452 1.162z"/></clipPath></defs><path d="M5.688 22.215l-.022.017-.019.019c-.424.424-1.147.124-1.147-.474V8.605c0-.828.672-1.5 1.5-1.5h16c.828 0 1.5.672 1.5 1.5v10.4c0 .828-.672 1.5-1.5 1.5H8.702c-.568 0-1.119.193-1.562.548l-1.452 1.162z" fill="none" stroke="#000000"/><path clip-path="url(#clip_frame30_path_3)" d="M13.417 3.647c-3.734-6.606-8.945-2.752-11.084 0v22.02H24.5V3.647c-2.333 2.753-7.35 6.606-11.083 0z" fill="#000000"/><path d="M2.333 9.333h16.334m-16.334 0h16.334M2.333 12.833h14M2.333 16.333H14" fill="#000000" stroke="#ffffff" stroke-width="2.333333"/></g></svg>