<svg xmlns="http://www.w3.org/2000/svg" viewBox="0 0 1708 28" width="1708" height="28"><g><defs><clipPath id="clip_frame0_path_3"><path d="M5.688 22.215l-.022.017-.019.019c-.424.424-1.147.124-1.147-.474V8.605c0-.828.672-1.5 1.5-1.5h16c.828 0 1.5.672 1.5 1.5v10.4c0 .828-.672 1.5-1.5 1.5H8.702c-.568 0-1.119.193-1.562.548l-1.452 1.162z"/></clipPath></defs><path d="M5.688 22.215l-.022.017-.019.019c-.424.424-1.147.124-1.147-.474V8.605c0-.828.672-1.5 1.5-1.5h16c.828 0 1.5.672 1.5 1.5v10.4c0 .828-.672 1.5-1.5 1.5H8.702c-.568 0-1.119.193-1.562.548l-1.452 1.162z" fill="none" stroke="#000000"/><path clip-path="url(#clip_frame0_path_3)" d="M13.417 23.665c-3.734-.601-8.945-.25-11.084 0v2.002H24.5v-2.002c-2.333.251-7.35.601-11.083 0z" fill="#000000"/><path d="M2.333 9.333h16.334m-16.334 0h16.334" fill="#000000" stroke="#ffffff" stroke-width="2.333333" stroke-dasharray="0,16.333333338000003" stroke-dashoffset="16.333333"/><path d="M2.333 12.833h14" fill="#000000" stroke="#ffffff" stroke-width="2.333333" stroke-dasharray="0,14.000000003999999" stroke-dashoffset="14"/><path d="M2.333 16.333H14" fill="#000000" stroke="#ffffff" stroke-width="2.333333" stroke-dasharray="0,11.66666667" stroke-dashoffset="11.666667"/></g><g transform="translate(28)"><defs><clipPath id="clip_frame1_path_3"><path d="M5.688 22.215l-.022.017-.019.019c-.424.424-1.147.124-1.147-.474V8.605c0-.828.672-1.5 1.5-1.5h16c.828 0 1.5.672 1.5 1.5v10.4c0 .828-.672 1.5-1.5 1.5H8.702c-.568 0-1.119.193-1.562.548l-1.452 1.162z"/></clipPath></defs><path d="M5.688 22.215l-.022.017-.019.019c-.424.424-1.147.124-1.147-.474V8.605c0-.828.672-1.5 1.5-1.5h16c.828 0 1.5.672 1.5 1.5v10.4c0 .828-.672 1.5-1.5 1.5H8.702c-.568 0-1.119.193-1.562.548l-1.452 1.162z" fill="none" stroke="#000000"/><path clip-path="url(#clip_frame1_path_3)" d="M13.417 23.653c-3.734-.605-8.945-.251-11.084 0v2.014H24.5v-2.014c-2.333.252-7.35.604-11.083 0z" fill="#000000"/><path d="M2.333 9.333h16.334m-16.334 0h16.334" fill="#000000" stroke="#ffffff" stroke-width="2.333333" stroke-dasharray="0,16.333333338000003" stroke-dashoffset="16.333333"/><path d="M2.333 12.833h14" fill="#000000" stroke="#ffffff" stroke-width="2.333333" stroke-dasharray="0,14.000000003999999" stroke-dashoffset="14"/><path d="M2.333 16.333H14" fill="#000000" stroke="#ffffff" stroke-width="2.333333" stroke-dasharray="0,11.66666667" stroke-dashoffset="11.666667"/></g><g transform="translate(56)"><defs><clipPath id="clip_frame2_path_3"><path d="M5.688 22.215l-.022.017-.019.019c-.424.424-1.147.124-1.147-.474V8.605c0-.828.672-1.5 1.5-1.5h16c.828 0 1.5.672 1.5 1.5v10.4c0 .828-.672 1.5-1.5 1.5H8.702c-.568 0-1.119.193-1.562.548l-1.452 1.162z"/></clipPath></defs><path d="M5.688 22.215l-.022.017-.019.019c-.424.424-1.147.124-1.147-.474V8.605c0-.828.672-1.5 1.5-1.5h16c.828 0 1.5.672 1.5 1.5v10.4c0 .828-.672 1.5-1.5 1.5H8.702c-.568 0-1.119.193-1.562.548l-1.452 1.162z" fill="none" stroke="#000000"/><path clip-path="url(#clip_frame2_path_3)" d="M13.417 23.615c-3.734-.616-8.945-.256-11.084 0v2.052H24.5v-2.052c-2.333.257-7.35.616-11.083 0z" fill="#000000"/><path d="M2.333 9.333h16.334m-16.334 0h16.334" fill="#000000" stroke="#ffffff" stroke-width="2.333333" stroke-dasharray="0,16.333333338000003" stroke-dashoffset="16.333333"/><path d="M2.333 12.833h14" fill="#000000" stroke="#ffffff" stroke-width="2.333333" stroke-dasharray="0,14.000000003999999" stroke-dashoffset="14"/><path d="M2.333 16.333H14" fill="#000000" stroke="#ffffff" stroke-width="2.333333" stroke-dasharray="0,11.66666667" stroke-dashoffset="11.666667"/></g><g transform="translate(84)"><defs><clipPath id="clip_frame3_path_3"><path d="M5.688 22.215l-.022.017-.019.019c-.424.424-1.147.124-1.147-.474V8.605c0-.828.672-1.5 1.5-1.5h16c.828 0 1.5.672 1.5 1.5v10.4c0 .828-.672 1.5-1.5 1.5H8.702c-.568 0-1.119.193-1.562.548l-1.452 1.162z"/></clipPath></defs><path d="M5.688 22.215l-.022.017-.019.019c-.424.424-1.147.124-1.147-.474V8.605c0-.828.672-1.5 1.5-1.5h16c.828 0 1.5.672 1.5 1.5v10.4c0 .828-.672 1.5-1.5 1.5H8.702c-.568 0-1.119.193-1.562.548l-1.452 1.162z" fill="none" stroke="#000000"/><path clip-path="url(#clip_frame3_path_3)" d="M13.417 23.549c-3.734-.635-8.945-.264-11.084 0v2.118H24.5v-2.118c-2.333.265-7.35.636-11.083 0z" fill="#000000"/><path d="M2.333 9.333h16.334m-16.334 0h16.334" fill="#000000" stroke="#ffffff" stroke-width="2.333333" stroke-dasharray="0,16.333333338000003" stroke-dashoffset="16.333333"/><path d="M2.333 12.833h14" fill="#000000" stroke="#ffffff" stroke-width="2.333333" stroke-dasharray="0,14.000000003999999" stroke-dashoffset="14"/><path d="M2.333 16.333H14" fill="#000000" stroke="#ffffff" stroke-width="2.333333" stroke-dasharray="0,11.66666667" stroke-dashoffset="11.666667"/></g><g transform="translate(112)"><defs><clipPath id="clip_frame4_path_3"><path d="M5.688 22.215l-.022.017-.019.019c-.424.424-1.147.124-1.147-.474V8.605c0-.828.672-1.5 1.5-1.5h16c.828 0 1.5.672 1.5 1.5v10.4c0 .828-.672 1.5-1.5 1.5H8.702c-.568 0-1.119.193-1.562.548l-1.452 1.162z"/></clipPath></defs><path d="M5.688 22.215l-.022.017-.019.019c-.424.424-1.147.124-1.147-.474V8.605c0-.828.672-1.5 1.5-1.5h16c.828 0 1.5.672 1.5 1.5v10.4c0 .828-.672 1.5-1.5 1.5H8.702c-.568 0-1.119.193-1.562.548l-1.452 1.162z" fill="none" stroke="#000000"/><path clip-path="url(#clip_frame4_path_3)" d="M13.417 23.452c-3.734-.665-8.945-.277-11.084 0v2.215H24.5v-2.215c-2.333.277-7.35.664-11.083 0z" fill="#000000"/><path d="M2.333 9.333h16.334m-16.334 0h16.334" fill="#000000" stroke="#ffffff" stroke-width="2.333333" stroke-dasharray="0,16.333333338000003" stroke-dashoffset="16.333333"/><path d="M2.333 12.833h14" fill="#000000" stroke="#ffffff" stroke-width="2.333333" stroke-dasharray="0,14.000000003999999" stroke-dashoffset="14"/><path d="M2.333 16.333H14" fill="#000000" stroke="#ffffff" stroke-width="2.333333" stroke-dasharray="0,11.66666667" stroke-dashoffset="11.666667"/></g><g transform="translate(140)"><defs><clipPath id="clip_frame5_path_3"><path d="M5.688 22.215l-.022.017-.019.019c-.424.424-1.147.124-1.147-.474V8.605c0-.828.672-1.5 1.5-1.5h16c.828 0 1.5.672 1.5 1.5v10.4c0 .828-.672 1.5-1.5 1.5H8.702c-.568 0-1.119.193-1.562.548l-1.452 1.162z"/></clipPath></defs><path d="M5.688 22.215l-.022.017-.019.019c-.424.424-1.147.124-1.147-.474V8.605c0-.828.672-1.5 1.5-1.5h16c.828 0 1.5.672 1.5 1.5v10.4c0 .828-.672 1.5-1.5 1.5H8.702c-.568 0-1.119.193-1.562.548l-1.452 1.162z" fill="none" stroke="#000000"/><path clip-path="url(#clip_frame5_path_3)" d="M13.417 23.319c-3.734-.705-8.945-.293-11.084 0v2.348H24.5v-2.348c-2.333.294-7.35.705-11.083 0z" fill="#000000"/><path d="M2.333 9.333h16.334m-16.334 0h16.334" fill="#000000" stroke="#ffffff" stroke-width="2.333333" stroke-dasharray="0,16.333333338000003" stroke-dashoffset="16.333333"/><path d="M2.333 12.833h14" fill="#000000" stroke="#ffffff" stroke-width="2.333333" stroke-dasharray="0,14.000000003999999" stroke-dashoffset="14"/><path d="M2.333 16.333H14" fill="#000000" stroke="#ffffff" stroke-width="2.333333" stroke-dasharray="0,11.66666667" stroke-dashoffset="11.666667"/></g><g transform="translate(168)"><defs><clipPath id="clip_frame6_path_3"><path d="M5.688 22.215l-.022.017-.019.019c-.424.424-1.147.124-1.147-.474V8.605c0-.828.672-1.5 1.5-1.5h16c.828 0 1.5.672 1.5 1.5v10.4c0 .828-.672 1.5-1.5 1.5H8.702c-.568 0-1.119.193-1.562.548l-1.452 1.162z"/></clipPath></defs><path d="M5.688 22.215l-.022.017-.019.019c-.424.424-1.147.124-1.147-.474V8.605c0-.828.672-1.5 1.5-1.5h16c.828 0 1.5.672 1.5 1.5v10.4c0 .828-.672 1.5-1.5 1.5H8.702c-.568 0-1.119.193-1.562.548l-1.452 1.162z" fill="none" stroke="#000000"/><path clip-path="url(#clip_frame6_path_3)" d="M13.417 23.147c-3.734-.756-8.945-.314-11.084 0v2.52H24.5v-2.52c-2.333.315-7.35.756-11.083 0z" fill="#000000"/><path d="M2.333 9.333h16.334m-16.334 0h16.334" fill="#000000" stroke="#ffffff" stroke-width="2.333333" stroke-dasharray="0,16.333333338000003" stroke-dashoffset="16.333333"/><path d="M2.333 12.833h14" fill="#000000" stroke="#ffffff" stroke-width="2.333333" stroke-dasharray="0,14.000000003999999" stroke-dashoffset="14"/><path d="M2.333 16.333H14" fill="#000000" stroke="#ffffff" stroke-width="2.333333" stroke-dasharray="0,11.66666667" stroke-dashoffset="11.666667"/></g><g transform="translate(196)"><defs><clipPath id="clip_frame7_path_3"><path d="M5.688 22.215l-.022.017-.019.019c-.424.424-1.147.124-1.147-.474V8.605c0-.828.672-1.5 1.5-1.5h16c.828 0 1.5.672 1.5 1.5v10.4c0 .828-.672 1.5-1.5 1.5H8.702c-.568 0-1.119.193-1.562.548l-1.452 1.162z"/></clipPath></defs><path d="M5.688 22.215l-.022.017-.019.019c-.424.424-1.147.124-1.147-.474V8.605c0-.828.672-1.5 1.5-1.5h16c.828 0 1.5.672 1.5 1.5v10.4c0 .828-.672 1.5-1.5 1.5H8.702c-.568 0-1.119.193-1.562.548l-1.452 1.162z" fill="none" stroke="#000000"/><path clip-path="url(#clip_frame7_path_3)" d="M13.417 22.931c-3.734-.821-8.945-.342-11.084 0v2.736H24.5v-2.736c-2.333.342-7.35.821-11.083 0z" fill="#000000"/><path d="M2.333 9.333h16.334m-16.334 0h16.334" fill="#000000" stroke="#ffffff" stroke-width="2.333333" stroke-dasharray="0,16.333333338000003" stroke-dashoffset="16.333333"/><path d="M2.333 12.833h14" fill="#000000" stroke="#ffffff" stroke-width="2.333333" stroke-dasharray="0,14.000000003999999" stroke-dashoffset="14"/><path d="M2.333 16.333H14" fill="#000000" stroke="#ffffff" stroke-width="2.333333" stroke-dasharray="0,11.66666667" stroke-dashoffset="11.666667"/></g><g transform="translate(224)"><defs><clipPath id="clip_frame8_path_3"><path d="M5.688 22.215l-.022.017-.019.019c-.424.424-1.147.124-1.147-.474V8.605c0-.828.672-1.5 1.5-1.5h16c.828 0 1.5.672 1.5 1.5v10.4c0 .828-.672 1.5-1.5 1.5H8.702c-.568 0-1.119.193-1.562.548l-1.452 1.162z"/></clipPath></defs><path d="M5.688 22.215l-.022.017-.019.019c-.424.424-1.147.124-1.147-.474V8.605c0-.828.672-1.5 1.5-1.5h16c.828 0 1.5.672 1.5 1.5v10.4c0 .828-.672 1.5-1.5 1.5H8.702c-.568 0-1.119.193-1.562.548l-1.452 1.162z" fill="none" stroke="#000000"/><path clip-path="url(#clip_frame8_path_3)" d="M13.417 22.665c-3.734-.901-8.945-.374-11.084 0v3.002H24.5v-3.002c-2.333.376-7.35.901-11.083 0z" fill="#000000"/><path d="M2.333 9.333h16.334m-16.334 0h16.334" fill="#000000" stroke="#ffffff" stroke-width="2.333333" stroke-dasharray="0,16.333333338000003" stroke-dashoffset="16.333333"/><path d="M2.333 12.833h14" fill="#000000" stroke="#ffffff" stroke-width="2.333333" stroke-dasharray="0,14.000000003999999" stroke-dashoffset="14"/><path d="M2.333 16.333H14" fill="#000000" stroke="#ffffff" stroke-width="2.333333" stroke-dasharray="0,11.66666667" stroke-dashoffset="11.666667"/></g><g transform="translate(252)"><defs><clipPath id="clip_frame9_path_3"><path d="M5.688 22.215l-.022.017-.019.019c-.424.424-1.147.124-1.147-.474V8.605c0-.828.672-1.5 1.5-1.5h16c.828 0 1.5.672 1.5 1.5v10.4c0 .828-.672 1.5-1.5 1.5H8.702c-.568 0-1.119.193-1.562.548l-1.452 1.162z"/></clipPath></defs><path d="M5.688 22.215l-.022.017-.019.019c-.424.424-1.147.124-1.147-.474V8.605c0-.828.672-1.5 1.5-1.5h16c.828 0 1.5.672 1.5 1.5v10.4c0 .828-.672 1.5-1.5 1.5H8.702c-.568 0-1.119.193-1.562.548l-1.452 1.162z" fill="none" stroke="#000000"/><path clip-path="url(#clip_frame9_path_3)" d="M13.417 22.344c-3.734-.997-8.945-.415-11.084 0v3.323H24.5v-3.323c-2.333.416-7.35.997-11.083 0z" fill="#000000"/><path d="M2.333 9.333h16.334m-16.334 0h16.334" fill="#000000" stroke="#ffffff" stroke-width="2.333333" stroke-dasharray="0,16.333333338000003" stroke-dashoffset="16.333333"/><path d="M2.333 12.833h14" fill="#000000" stroke="#ffffff" stroke-width="2.333333" stroke-dasharray="0,14.000000003999999" stroke-dashoffset="14"/><path d="M2.333 16.333H14" fill="#000000" stroke="#ffffff" stroke-width="2.333333" stroke-dasharray="0,11.66666667" stroke-dashoffset="11.666667"/></g><g transform="translate(280)"><defs><clipPath id="clip_frame10_path_3"><path d="M5.688 22.215l-.022.017-.019.019c-.424.424-1.147.124-1.147-.474V8.605c0-.828.672-1.5 1.5-1.5h16c.828 0 1.5.672 1.5 1.5v10.4c0 .828-.672 1.5-1.5 1.5H8.702c-.568 0-1.119.193-1.562.548l-1.452 1.162z"/></clipPath></defs><path d="M5.688 22.215l-.022.017-.019.019c-.424.424-1.147.124-1.147-.474V8.605c0-.828.672-1.5 1.5-1.5h16c.828 0 1.5.672 1.5 1.5v10.4c0 .828-.672 1.5-1.5 1.5H8.702c-.568 0-1.119.193-1.562.548l-1.452 1.162z" fill="none" stroke="#000000"/><path clip-path="url(#clip_frame10_path_3)" d="M13.417 21.961c-3.734-1.112-8.945-.463-11.084 0v3.706H24.5v-3.706c-2.333.464-7.35 1.112-11.083 0z" fill="#000000"/><path d="M2.333 9.333h16.334m-16.334 0h16.334" fill="#000000" stroke="#ffffff" stroke-width="2.333333" stroke-dasharray="0,16.333333338000003" stroke-dashoffset="16.333333"/><path d="M2.333 12.833h14" fill="#000000" stroke="#ffffff" stroke-width="2.333333" stroke-dasharray="0,14.000000003999999" stroke-dashoffset="14"/><path d="M2.333 16.333H14" fill="#000000" stroke="#ffffff" stroke-width="2.333333" stroke-dasharray="0,11.66666667" stroke-dashoffset="11.666667"/></g><g transform="translate(308)"><defs><clipPath id="clip_frame11_path_3"><path d="M5.688 22.215l-.022.017-.019.019c-.424.424-1.147.124-1.147-.474V8.605c0-.828.672-1.5 1.5-1.5h16c.828 0 1.5.672 1.5 1.5v10.4c0 .828-.672 1.5-1.5 1.5H8.702c-.568 0-1.119.193-1.562.548l-1.452 1.162z"/></clipPath></defs><path d="M5.688 22.215l-.022.017-.019.019c-.424.424-1.147.124-1.147-.474V8.605c0-.828.672-1.5 1.5-1.5h16c.828 0 1.5.672 1.5 1.5v10.4c0 .828-.672 1.5-1.5 1.5H8.702c-.568 0-1.119.193-1.562.548l-1.452 1.162z" fill="none" stroke="#000000"/><path clip-path="url(#clip_frame11_path_3)" d="M13.417 21.51c-3.734-1.248-8.945-.52-11.084 0v4.157H24.5V21.51c-2.333.52-7.35 1.247-11.083 0z" fill="#000000"/><path d="M2.333 9.333h16.334m-16.334 0h16.334" fill="#000000" stroke="#ffffff" stroke-width="2.333333" stroke-dasharray="0,16.333333338000003" stroke-dashoffset="16.333333"/><path d="M2.333 12.833h14" fill="#000000" stroke="#ffffff" stroke-width="2.333333" stroke-dasharray="0,14.000000003999999" stroke-dashoffset="14"/><path d="M2.333 16.333H14" fill="#000000" stroke="#ffffff" stroke-width="2.333333" stroke-dasharray="0,11.66666667" stroke-dashoffset="11.666667"/></g><g transform="translate(336)"><defs><clipPath id="clip_frame12_path_3"><path d="M5.688 22.215l-.022.017-.019.019c-.424.424-1.147.124-1.147-.474V8.605c0-.828.672-1.5 1.5-1.5h16c.828 0 1.5.672 1.5 1.5v10.4c0 .828-.672 1.5-1.5 1.5H8.702c-.568 0-1.119.193-1.562.548l-1.452 1.162z"/></clipPath></defs><path d="M5.688 22.215l-.022.017-.019.019c-.424.424-1.147.124-1.147-.474V8.605c0-.828.672-1.5 1.5-1.5h16c.828 0 1.5.672 1.5 1.5v10.4c0 .828-.672 1.5-1.5 1.5H8.702c-.568 0-1.119.193-1.562.548l-1.452 1.162z" fill="none" stroke="#000000"/><path clip-path="url(#clip_frame12_path_3)" d="M13.417 20.983c-3.734-1.405-8.945-.584-11.084 0v4.684H24.5v-4.684c-2.333.586-7.35 1.406-11.083 0z" fill="#000000"/><path d="M2.333 9.333h16.334m-16.334 0h16.334" fill="#000000" stroke="#ffffff" stroke-width="2.333333" stroke-dasharray="0,16.333333338000003" stroke-dashoffset="16.333333"/><path d="M2.333 12.833h14" fill="#000000" stroke="#ffffff" stroke-width="2.333333" stroke-dasharray="0,14.000000003999999" stroke-dashoffset="14"/><path d="M2.333 16.333H14" fill="#000000" stroke="#ffffff" stroke-width="2.333333" stroke-dasharray="0,11.66666667" stroke-dashoffset="11.666667"/></g><g transform="translate(364)"><defs><clipPath id="clip_frame13_path_3"><path d="M5.688 22.215l-.022.017-.019.019c-.424.424-1.147.124-1.147-.474V8.605c0-.828.672-1.5 1.5-1.5h16c.828 0 1.5.672 1.5 1.5v10.4c0 .828-.672 1.5-1.5 1.5H8.702c-.568 0-1.119.193-1.562.548l-1.452 1.162z"/></clipPath></defs><path d="M5.688 22.215l-.022.017-.019.019c-.424.424-1.147.124-1.147-.474V8.605c0-.828.672-1.5 1.5-1.5h16c.828 0 1.5.672 1.5 1.5v10.4c0 .828-.672 1.5-1.5 1.5H8.702c-.568 0-1.119.193-1.562.548l-1.452 1.162z" fill="none" stroke="#000000"/><path clip-path="url(#clip_frame13_path_3)" d="M13.417 20.378c-3.734-1.587-8.945-.661-11.084 0v5.289H24.5v-5.289c-2.333.662-7.35 1.587-11.083 0z" fill="#000000"/><path d="M2.333 9.333h16.334m-16.334 0h16.334" fill="#000000" stroke="#ffffff" stroke-width="2.333333" stroke-dasharray="0,16.333333338000003" stroke-dashoffset="16.333333"/><path d="M2.333 12.833h14" fill="#000000" stroke="#ffffff" stroke-width="2.333333" stroke-dasharray="0,14.000000003999999" stroke-dashoffset="14"/><path d="M2.333 16.333H14" fill="#000000" stroke="#ffffff" stroke-width="2.333333" stroke-dasharray="0,11.66666667" stroke-dashoffset="11.666667"/></g><g transform="translate(392)"><defs><clipPath id="clip_frame14_path_3"><path d="M5.688 22.215l-.022.017-.019.019c-.424.424-1.147.124-1.147-.474V8.605c0-.828.672-1.5 1.5-1.5h16c.828 0 1.5.672 1.5 1.5v10.4c0 .828-.672 1.5-1.5 1.5H8.702c-.568 0-1.119.193-1.562.548l-1.452 1.162z"/></clipPath></defs><path d="M5.688 22.215l-.022.017-.019.019c-.424.424-1.147.124-1.147-.474V8.605c0-.828.672-1.5 1.5-1.5h16c.828 0 1.5.672 1.5 1.5v10.4c0 .828-.672 1.5-1.5 1.5H8.702c-.568 0-1.119.193-1.562.548l-1.452 1.162z" fill="none" stroke="#000000"/><path clip-path="url(#clip_frame14_path_3)" d="M13.417 19.692c-3.734-1.793-8.945-.746-11.084 0v5.975H24.5v-5.975c-2.333.747-7.35 1.793-11.083 0z" fill="#000000"/><path d="M2.333 9.333h16.334m-16.334 0h16.334" fill="#000000" stroke="#ffffff" stroke-width="2.333333" stroke-dasharray="0,16.333333338000003" stroke-dashoffset="16.333333"/><path d="M2.333 12.833h14" fill="#000000" stroke="#ffffff" stroke-width="2.333333" stroke-dasharray="0,14.000000003999999" stroke-dashoffset="14"/><path d="M2.333 16.333H14" fill="#000000" stroke="#ffffff" stroke-width="2.333333" stroke-dasharray="0,11.66666667" stroke-dashoffset="11.666667"/></g><g transform="translate(420)"><defs><clipPath id="clip_frame15_path_3"><path d="M5.688 22.215l-.022.017-.019.019c-.424.424-1.147.124-1.147-.474V8.605c0-.828.672-1.5 1.5-1.5h16c.828 0 1.5.672 1.5 1.5v10.4c0 .828-.672 1.5-1.5 1.5H8.702c-.568 0-1.119.193-1.562.548l-1.452 1.162z"/></clipPath></defs><path d="M5.688 22.215l-.022.017-.019.019c-.424.424-1.147.124-1.147-.474V8.605c0-.828.672-1.5 1.5-1.5h16c.828 0 1.5.672 1.5 1.5v10.4c0 .828-.672 1.5-1.5 1.5H8.702c-.568 0-1.119.193-1.562.548l-1.452 1.162z" fill="none" stroke="#000000"/><path clip-path="url(#clip_frame15_path_3)" d="M13.417 18.929c-3.734-2.022-8.945-.842-11.084 0v6.738H24.5v-6.738c-2.333.843-7.35 2.021-11.083 0z" fill="#000000"/><path d="M2.333 9.333h16.334m-16.334 0h16.334" fill="#000000" stroke="#ffffff" stroke-width="2.333333" stroke-dasharray="0,16.333333338000003" stroke-dashoffset="16.333333"/><path d="M2.333 12.833h14" fill="#000000" stroke="#ffffff" stroke-width="2.333333" stroke-dasharray="0,14.000000003999999" stroke-dashoffset="14"/><path d="M2.333 16.333H14" fill="#000000" stroke="#ffffff" stroke-width="2.333333" stroke-dasharray="0,11.66666667" stroke-dashoffset="11.666667"/></g><g transform="translate(448)"><defs><clipPath id="clip_frame16_path_3"><path d="M5.688 22.215l-.022.017-.019.019c-.424.424-1.147.124-1.147-.474V8.605c0-.828.672-1.5 1.5-1.5h16c.828 0 1.5.672 1.5 1.5v10.4c0 .828-.672 1.5-1.5 1.5H8.702c-.568 0-1.119.193-1.562.548l-1.452 1.162z"/></clipPath></defs><path d="M5.688 22.215l-.022.017-.019.019c-.424.424-1.147.124-1.147-.474V8.605c0-.828.672-1.5 1.5-1.5h16c.828 0 1.5.672 1.5 1.5v10.4c0 .828-.672 1.5-1.5 1.5H8.702c-.568 0-1.119.193-1.562.548l-1.452 1.162z" fill="none" stroke="#000000"/><path clip-path="url(#clip_frame16_path_3)" d="M13.417 18.099c-3.734-2.271-8.945-.946-11.084 0v7.568H24.5v-7.568c-2.333.946-7.35 2.27-11.083 0z" fill="#000000"/><path d="M2.333 9.333h16.334m-16.334 0h16.334" fill="#000000" stroke="#ffffff" stroke-width="2.333333" stroke-dasharray="0,16.333333338000003" stroke-dashoffset="16.333333"/><path d="M2.333 12.833h14" fill="#000000" stroke="#ffffff" stroke-width="2.333333" stroke-dasharray="0,14.000000003999999" stroke-dashoffset="14"/><path d="M2.333 16.333H14" fill="#000000" stroke="#ffffff" stroke-width="2.333333" stroke-dasharray="0,11.66666667" stroke-dashoffset="11.666667"/></g><g transform="translate(476)"><defs><clipPath id="clip_frame17_path_3"><path d="M5.688 22.215l-.022.017-.019.019c-.424.424-1.147.124-1.147-.474V8.605c0-.828.672-1.5 1.5-1.5h16c.828 0 1.5.672 1.5 1.5v10.4c0 .828-.672 1.5-1.5 1.5H8.702c-.568 0-1.119.193-1.562.548l-1.452 1.162z"/></clipPath></defs><path d="M5.688 22.215l-.022.017-.019.019c-.424.424-1.147.124-1.147-.474V8.605c0-.828.672-1.5 1.5-1.5h16c.828 0 1.5.672 1.5 1.5v10.4c0 .828-.672 1.5-1.5 1.5H8.702c-.568 0-1.119.193-1.562.548l-1.452 1.162z" fill="none" stroke="#000000"/><path clip-path="url(#clip_frame17_path_3)" d="M13.417 17.219c-3.734-2.534-8.945-1.055-11.084 0v8.448H24.5v-8.448c-2.333 1.057-7.35 2.535-11.083 0z" fill="#000000"/><path d="M2.333 9.333h16.334m-16.334 0h16.334" fill="#000000" stroke="#ffffff" stroke-width="2.333333" stroke-dasharray="0,16.333333338000003" stroke-dashoffset="16.333333"/><path d="M2.333 12.833h14" fill="#000000" stroke="#ffffff" stroke-width="2.333333" stroke-dasharray="0,14.000000003999999" stroke-dashoffset="14"/><path d="M2.333 16.333H14" fill="#000000" stroke="#ffffff" stroke-width="2.333333" stroke-dasharray="0,11.66666667" stroke-dashoffset="11.666667"/></g><g transform="translate(504)"><defs><clipPath id="clip_frame18_path_3"><path d="M5.688 22.215l-.022.017-.019.019c-.424.424-1.147.124-1.147-.474V8.605c0-.828.672-1.5 1.5-1.5h16c.828 0 1.5.672 1.5 1.5v10.4c0 .828-.672 1.5-1.5 1.5H8.702c-.568 0-1.119.193-1.562.548l-1.452 1.162z"/></clipPath></defs><path d="M5.688 22.215l-.022.017-.019.019c-.424.424-1.147.124-1.147-.474V8.605c0-.828.672-1.5 1.5-1.5h16c.828 0 1.5.672 1.5 1.5v10.4c0 .828-.672 1.5-1.5 1.5H8.702c-.568 0-1.119.193-1.562.548l-1.452 1.162z" fill="none" stroke="#000000"/><path clip-path="url(#clip_frame18_path_3)" d="M13.417 16.312c-3.734-2.806-8.945-1.168-11.084 0v9.355H24.5v-9.355c-2.333 1.17-7.35 2.807-11.083 0z" fill="#000000"/><path d="M2.333 9.333h16.334m-16.334 0h16.334" fill="#000000" stroke="#ffffff" stroke-width="2.333333" stroke-dasharray="0,16.333333338000003" stroke-dashoffset="16.333333"/><path d="M2.333 12.833h14" fill="#000000" stroke="#ffffff" stroke-width="2.333333" stroke-dasharray="0,14.000000003999999" stroke-dashoffset="14"/><path d="M2.333 16.333H14" fill="#000000" stroke="#ffffff" stroke-width="2.333333" stroke-dasharray="0,11.66666667" stroke-dashoffset="11.666667"/></g><g transform="translate(532)"><defs><clipPath id="clip_frame19_path_3"><path d="M5.688 22.215l-.022.017-.019.019c-.424.424-1.147.124-1.147-.474V8.605c0-.828.672-1.5 1.5-1.5h16c.828 0 1.5.672 1.5 1.5v10.4c0 .828-.672 1.5-1.5 1.5H8.702c-.568 0-1.119.193-1.562.548l-1.452 1.162z"/></clipPath></defs><path d="M5.688 22.215l-.022.017-.019.019c-.424.424-1.147.124-1.147-.474V8.605c0-.828.672-1.5 1.5-1.5h16c.828 0 1.5.672 1.5 1.5v10.4c0 .828-.672 1.5-1.5 1.5H8.702c-.568 0-1.119.193-1.562.548l-1.452 1.162z" fill="none" stroke="#000000"/><path clip-path="url(#clip_frame19_path_3)" d="M13.417 15.403c-3.734-3.08-8.945-1.283-11.084 0v10.264H24.5V15.403c-2.333 1.283-7.35 3.079-11.083 0z" fill="#000000"/><path d="M2.333 9.333h16.334m-16.334 0h16.334" fill="#000000" stroke="#ffffff" stroke-width="2.333333" stroke-dasharray="0,16.333333338000003" stroke-dashoffset="16.333333"/><path d="M2.333 12.833h14" fill="#000000" stroke="#ffffff" stroke-width="2.333333" stroke-dasharray="0,14.000000003999999" stroke-dashoffset="14"/><path d="M2.333 16.333H14" fill="#000000" stroke="#ffffff" stroke-width="2.333333" stroke-dasharray="0,11.66666667" stroke-dashoffset="11.666667"/></g><g transform="translate(560)"><defs><clipPath id="clip_frame20_path_3"><path d="M5.688 22.215l-.022.017-.019.019c-.424.424-1.147.124-1.147-.474V8.605c0-.828.672-1.5 1.5-1.5h16c.828 0 1.5.672 1.5 1.5v10.4c0 .828-.672 1.5-1.5 1.5H8.702c-.568 0-1.119.193-1.562.548l-1.452 1.162z"/></clipPath></defs><path d="M5.688 22.215l-.022.017-.019.019c-.424.424-1.147.124-1.147-.474V8.605c0-.828.672-1.5 1.5-1.5h16c.828 0 1.5.672 1.5 1.5v10.4c0 .828-.672 1.5-1.5 1.5H8.702c-.568 0-1.119.193-1.562.548l-1.452 1.162z" fill="none" stroke="#000000"/><path clip-path="url(#clip_frame20_path_3)" d="M13.417 14.512c-3.734-3.347-8.945-1.394-11.084 0v11.155H24.5V14.512c-2.333 1.395-7.35 3.346-11.083 0z" fill="#000000"/><path d="M2.333 9.333h16.334m-16.334 0h16.334" fill="#000000" stroke="#ffffff" stroke-width="2.333333" stroke-dasharray="0,16.333333338000003" stroke-dashoffset="16.333333"/><path d="M2.333 12.833h14" fill="#000000" stroke="#ffffff" stroke-width="2.333333" stroke-dasharray="0,14.000000003999999" stroke-dashoffset="14"/><path d="M2.333 16.333H14" fill="#000000" stroke="#ffffff" stroke-width="2.333333" stroke-dasharray="0,11.66666667" stroke-dashoffset="11.666667"/></g><g transform="translate(588)"><defs><clipPath id="clip_frame21_path_3"><path d="M5.688 22.215l-.022.017-.019.019c-.424.424-1.147.124-1.147-.474V8.605c0-.828.672-1.5 1.5-1.5h16c.828 0 1.5.672 1.5 1.5v10.4c0 .828-.672 1.5-1.5 1.5H8.702c-.568 0-1.119.193-1.562.548l-1.452 1.162z"/></clipPath></defs><path d="M5.688 22.215l-.022.017-.019.019c-.424.424-1.147.124-1.147-.474V8.605c0-.828.672-1.5 1.5-1.5h16c.828 0 1.5.672 1.5 1.5v10.4c0 .828-.672 1.5-1.5 1.5H8.702c-.568 0-1.119.193-1.562.548l-1.452 1.162z" fill="none" stroke="#000000"/><path clip-path="url(#clip_frame21_path_3)" d="M13.417 13.656c-3.734-3.604-8.945-1.501-11.084 0v12.011H24.5V13.656c-2.333 1.502-7.35 3.603-11.083 0z" fill="#000000"/><path d="M2.333 9.333h16.334m-16.334 0h16.334" fill="#000000" stroke="#ffffff" stroke-width="2.333333" stroke-dasharray="0,16.333333338000003" stroke-dashoffset="16.333333"/><path d="M2.333 12.833h14" fill="#000000" stroke="#ffffff" stroke-width="2.333333" stroke-dasharray="0,14.000000003999999" stroke-dashoffset="14"/><path d="M2.333 16.333H14" fill="#000000" stroke="#ffffff" stroke-width="2.333333" stroke-dasharray="0,11.66666667" stroke-dashoffset="11.666667"/></g><g transform="translate(616)"><defs><clipPath id="clip_frame22_path_3"><path d="M5.688 22.215l-.022.017-.019.019c-.424.424-1.147.124-1.147-.474V8.605c0-.828.672-1.5 1.5-1.5h16c.828 0 1.5.672 1.5 1.5v10.4c0 .828-.672 1.5-1.5 1.5H8.702c-.568 0-1.119.193-1.562.548l-1.452 1.162z"/></clipPath></defs><path d="M5.688 22.215l-.022.017-.019.019c-.424.424-1.147.124-1.147-.474V8.605c0-.828.672-1.5 1.5-1.5h16c.828 0 1.5.672 1.5 1.5v10.4c0 .828-.672 1.5-1.5 1.5H8.702c-.568 0-1.119.193-1.562.548l-1.452 1.162z" fill="none" stroke="#000000"/><path clip-path="url(#clip_frame22_path_3)" d="M13.417 12.846c-3.734-3.846-8.945-1.602-11.084 0v12.821H24.5V12.846c-2.333 1.603-7.35 3.846-11.083 0z" fill="#000000"/><path d="M2.333 9.333h16.334m-16.334 0h16.334" fill="#000000" stroke="#ffffff" stroke-width="2.333333" stroke-dasharray="0,16.333333338000003" stroke-dashoffset="16.333333"/><path d="M2.333 12.833h14" fill="#000000" stroke="#ffffff" stroke-width="2.333333" stroke-dasharray="0,14.000000003999999" stroke-dashoffset="14"/><path d="M2.333 16.333H14" fill="#000000" stroke="#ffffff" stroke-width="2.333333" stroke-dasharray="0,11.66666667" stroke-dashoffset="11.666667"/></g><g transform="translate(644)"><defs><clipPath id="clip_frame23_path_3"><path d="M5.688 22.215l-.022.017-.019.019c-.424.424-1.147.124-1.147-.474V8.605c0-.828.672-1.5 1.5-1.5h16c.828 0 1.5.672 1.5 1.5v10.4c0 .828-.672 1.5-1.5 1.5H8.702c-.568 0-1.119.193-1.562.548l-1.452 1.162z"/></clipPath></defs><path d="M5.688 22.215l-.022.017-.019.019c-.424.424-1.147.124-1.147-.474V8.605c0-.828.672-1.5 1.5-1.5h16c.828 0 1.5.672 1.5 1.5v10.4c0 .828-.672 1.5-1.5 1.5H8.702c-.568 0-1.119.193-1.562.548l-1.452 1.162z" fill="none" stroke="#000000"/><path clip-path="url(#clip_frame23_path_3)" d="M13.417 12.088c-3.734-4.074-8.945-1.697-11.084 0v13.579H24.5V12.088c-2.333 1.697-7.35 4.073-11.083 0z" fill="#000000"/><path d="M2.333 9.333h16.334m-16.334 0h16.334" fill="#000000" stroke="#ffffff" stroke-width="2.333333" stroke-dasharray="0,16.333333338000003" stroke-dashoffset="16.333333"/><path d="M2.333 12.833h14" fill="#000000" stroke="#ffffff" stroke-width="2.333333" stroke-dasharray="0,14.000000003999999" stroke-dashoffset="14"/><path d="M2.333 16.333H14" fill="#000000" stroke="#ffffff" stroke-width="2.333333" stroke-dasharray="0,11.66666667" stroke-dashoffset="11.666667"/></g><g transform="translate(672)"><defs><clipPath id="clip_frame24_path_3"><path d="M5.688 22.215l-.022.017-.019.019c-.424.424-1.147.124-1.147-.474V8.605c0-.828.672-1.5 1.5-1.5h16c.828 0 1.5.672 1.5 1.5v10.4c0 .828-.672 1.5-1.5 1.5H8.702c-.568 0-1.119.193-1.562.548l-1.452 1.162z"/></clipPath></defs><path d="M5.688 22.215l-.022.017-.019.019c-.424.424-1.147.124-1.147-.474V8.605c0-.828.672-1.5 1.5-1.5h16c.828 0 1.5.672 1.5 1.5v10.4c0 .828-.672 1.5-1.5 1.5H8.702c-.568 0-1.119.193-1.562.548l-1.452 1.162z" fill="none" stroke="#000000"/><path clip-path="url(#clip_frame24_path_3)" d="M13.417 11.382c-3.734-4.286-8.945-1.785-11.084 0v14.285H24.5V11.382c-2.333 1.786-7.35 4.286-11.083 0z" fill="#000000"/><path d="M2.333 9.333h16.334m-16.334 0h16.334" fill="#000000" stroke="#ffffff" stroke-width="2.333333" stroke-dasharray="0,16.333333338000003" stroke-dashoffset="16.333333"/><path d="M2.333 12.833h14" fill="#000000" stroke="#ffffff" stroke-width="2.333333" stroke-dasharray="0,14.000000003999999" stroke-dashoffset="14"/><path d="M2.333 16.333H14" fill="#000000" stroke="#ffffff" stroke-width="2.333333" stroke-dasharray="0,11.66666667" stroke-dashoffset="11.666667"/></g><g transform="translate(700)"><defs><clipPath id="clip_frame25_path_3"><path d="M5.688 22.215l-.022.017-.019.019c-.424.424-1.147.124-1.147-.474V8.605c0-.828.672-1.5 1.5-1.5h16c.828 0 1.5.672 1.5 1.5v10.4c0 .828-.672 1.5-1.5 1.5H8.702c-.568 0-1.119.193-1.562.548l-1.452 1.162z"/></clipPath></defs><path d="M5.688 22.215l-.022.017-.019.019c-.424.424-1.147.124-1.147-.474V8.605c0-.828.672-1.5 1.5-1.5h16c.828 0 1.5.672 1.5 1.5v10.4c0 .828-.672 1.5-1.5 1.5H8.702c-.568 0-1.119.193-1.562.548l-1.452 1.162z" fill="none" stroke="#000000"/><path clip-path="url(#clip_frame25_path_3)" d="M13.417 10.728c-3.734-4.481-8.945-1.866-11.084 0v14.939H24.5V10.728c-2.333 1.868-7.35 4.482-11.083 0z" fill="#000000"/><path d="M2.333 9.333h16.334m-16.334 0h16.334" fill="#000000" stroke="#ffffff" stroke-width="2.333333" stroke-dasharray="0,16.333333338000003" stroke-dashoffset="16.333333"/><path d="M2.333 12.833h14" fill="#000000" stroke="#ffffff" stroke-width="2.333333" stroke-dasharray="0,14.000000003999999" stroke-dashoffset="14"/><path d="M2.333 16.333H14" fill="#000000" stroke="#ffffff" stroke-width="2.333333" stroke-dasharray="0,11.66666667" stroke-dashoffset="11.666667"/></g><g transform="translate(728)"><defs><clipPath id="clip_frame26_path_3"><path d="M5.688 22.215l-.022.017-.019.019c-.424.424-1.147.124-1.147-.474V8.605c0-.828.672-1.5 1.5-1.5h16c.828 0 1.5.672 1.5 1.5v10.4c0 .828-.672 1.5-1.5 1.5H8.702c-.568 0-1.119.193-1.562.548l-1.452 1.162z"/></clipPath></defs><path d="M5.688 22.215l-.022.017-.019.019c-.424.424-1.147.124-1.147-.474V8.605c0-.828.672-1.5 1.5-1.5h16c.828 0 1.5.672 1.5 1.5v10.4c0 .828-.672 1.5-1.5 1.5H8.702c-.568 0-1.119.193-1.562.548l-1.452 1.162z" fill="none" stroke="#000000"/><path clip-path="url(#clip_frame26_path_3)" d="M13.417 10.124c-3.734-4.663-8.945-1.942-11.084 0v15.543H24.5V10.124c-2.333 1.944-7.35 4.663-11.083 0z" fill="#000000"/><path d="M2.333 9.333h16.334m-16.334 0h16.334" fill="#000000" stroke="#ffffff" stroke-width="2.333333" stroke-dasharray="0,16.333333338000003" stroke-dashoffset="16.333333"/><path d="M2.333 12.833h14" fill="#000000" stroke="#ffffff" stroke-width="2.333333" stroke-dasharray="0,14.000000003999999" stroke-dashoffset="14"/><path d="M2.333 16.333H14" fill="#000000" stroke="#ffffff" stroke-width="2.333333" stroke-dasharray="0,11.66666667" stroke-dashoffset="11.666667"/></g><g transform="translate(756)"><defs><clipPath id="clip_frame27_path_3"><path d="M5.688 22.215l-.022.017-.019.019c-.424.424-1.147.124-1.147-.474V8.605c0-.828.672-1.5 1.5-1.5h16c.828 0 1.5.672 1.5 1.5v10.4c0 .828-.672 1.5-1.5 1.5H8.702c-.568 0-1.119.193-1.562.548l-1.452 1.162z"/></clipPath></defs><path d="M5.688 22.215l-.022.017-.019.019c-.424.424-1.147.124-1.147-.474V8.605c0-.828.672-1.5 1.5-1.5h16c.828 0 1.5.672 1.5 1.5v10.4c0 .828-.672 1.5-1.5 1.5H8.702c-.568 0-1.119.193-1.562.548l-1.452 1.162z" fill="none" stroke="#000000"/><path clip-path="url(#clip_frame27_path_3)" d="M13.417 9.567c-3.734-4.83-8.945-2.012-11.084 0v16.1H24.5v-16.1c-2.333 2.013-7.35 4.83-11.083 0z" fill="#000000"/><path d="M2.333 9.333h16.334m-16.334 0h16.334" fill="#000000" stroke="#ffffff" stroke-width="2.333333" stroke-dasharray="0,16.333333338000003" stroke-dashoffset="16.333333"/><path d="M2.333 12.833h14" fill="#000000" stroke="#ffffff" stroke-width="2.333333" stroke-dasharray="0,14.000000003999999" stroke-dashoffset="14"/><path d="M2.333 16.333H14" fill="#000000" stroke="#ffffff" stroke-width="2.333333" stroke-dasharray="0,11.66666667" stroke-dashoffset="11.666667"/></g><g transform="translate(784)"><defs><clipPath id="clip_frame28_path_3"><path d="M5.688 22.215l-.022.017-.019.019c-.424.424-1.147.124-1.147-.474V8.605c0-.828.672-1.5 1.5-1.5h16c.828 0 1.5.672 1.5 1.5v10.4c0 .828-.672 1.5-1.5 1.5H8.702c-.568 0-1.119.193-1.562.548l-1.452 1.162z"/></clipPath></defs><path d="M5.688 22.215l-.022.017-.019.019c-.424.424-1.147.124-1.147-.474V8.605c0-.828.672-1.5 1.5-1.5h16c.828 0 1.5.672 1.5 1.5v10.4c0 .828-.672 1.5-1.5 1.5H8.702c-.568 0-1.119.193-1.562.548l-1.452 1.162z" fill="none" stroke="#000000"/><path clip-path="url(#clip_frame28_path_3)" d="M13.417 9.052c-3.734-4.984-8.945-2.076-11.084 0v16.615H24.5V9.052c-2.333 2.078-7.35 4.985-11.083 0z" fill="#000000"/><path d="M2.333 9.333h16.334m-16.334 0h16.334" fill="#000000" stroke="#ffffff" stroke-width="2.333333" stroke-dasharray="0.0008504802730176743,16.332482857726983" stroke-dashoffset="16.333333"/><path d="M2.333 12.833h14" fill="#000000" stroke="#ffffff" stroke-width="2.333333" stroke-dasharray="0,14.000000003999999" stroke-dashoffset="14"/><path d="M2.333 16.333H14" fill="#000000" stroke="#ffffff" stroke-width="2.333333" stroke-dasharray="0,11.66666667" stroke-dashoffset="11.666667"/></g><g transform="translate(812)"><defs><clipPath id="clip_frame29_path_3"><path d="M5.688 22.215l-.022.017-.019.019c-.424.424-1.147.124-1.147-.474V8.605c0-.828.672-1.5 1.5-1.5h16c.828 0 1.5.672 1.5 1.5v10.4c0 .828-.672 1.5-1.5 1.5H8.702c-.568 0-1.119.193-1.562.548l-1.452 1.162z"/></clipPath></defs><path d="M5.688 22.215l-.022.017-.019.019c-.424.424-1.147.124-1.147-.474V8.605c0-.828.672-1.5 1.5-1.5h16c.828 0 1.5.672 1.5 1.5v10.4c0 .828-.672 1.5-1.5 1.5H8.702c-.568 0-1.119.193-1.562.548l-1.452 1.162z" fill="none" stroke="#000000"/><path clip-path="url(#clip_frame29_path_3)" d="M13.417 8.578c-3.734-5.127-8.945-2.136-11.084 0v17.089H24.5V8.578c-2.333 2.136-7.35 5.127-11.083 0z" fill="#000000"/><path d="M2.333 9.333h16.334m-16.334 0h16.334" fill="#000000" stroke="#ffffff" stroke-width="2.333333" stroke-dasharray="0.04761482015383386,16.285718517846167" stroke-dashoffset="16.333333"/><path d="M2.333 12.833h14" fill="#000000" stroke="#ffffff" stroke-width="2.333333" stroke-dasharray="0,14.000000003999999" stroke-dashoffset="14"/><path d="M2.333 16.333H14" fill="#000000" stroke="#ffffff" stroke-width="2.333333" stroke-dasharray="0,11.66666667" stroke-dashoffset="11.666667"/></g><g transform="translate(840)"><defs><clipPath id="clip_frame30_path_3"><path d="M5.688 22.215l-.022.017-.019.019c-.424.424-1.147.124-1.147-.474V8.605c0-.828.672-1.5 1.5-1.5h16c.828 0 1.5.672 1.5 1.5v10.4c0 .828-.672 1.5-1.5 1.5H8.702c-.568 0-1.119.193-1.562.548l-1.452 1.162z"/></clipPath></defs><path d="M5.688 22.215l-.022.017-.019.019c-.424.424-1.147.124-1.147-.474V8.605c0-.828.672-1.5 1.5-1.5h16c.828 0 1.5.672 1.5 1.5v10.4c0 .828-.672 1.5-1.5 1.5H8.702c-.568 0-1.119.193-1.562.548l-1.452 1.162z" fill="none" stroke="#000000"/><path clip-path="url(#clip_frame30_path_3)" d="M13.417 8.14c-3.734-5.258-8.945-2.191-11.084 0v17.527H24.5V8.14c-2.333 2.191-7.35 5.258-11.083 0z" fill="#000000"/><path d="M2.333 9.333h16.334m-16.334 0h16.334" fill="#000000" stroke="#ffffff" stroke-width="2.333333" stroke-dasharray="0.1765991467270805,16.15673419127292" stroke-dashoffset="16.333333"/><path d="M2.333 12.833h14" fill="#000000" stroke="#ffffff" stroke-width="2.333333" stroke-dasharray="0,14.000000003999999" stroke-dashoffset="14"/><path d="M2.333 16.333H14" fill="#000000" stroke="#ffffff" stroke-width="2.333333" stroke-dasharray="0,11.66666667" stroke-dashoffset="11.666667"/></g><g transform="translate(868)"><defs><clipPath id="clip_frame31_path_3"><path d="M5.688 22.215l-.022.017-.019.019c-.424.424-1.147.124-1.147-.474V8.605c0-.828.672-1.5 1.5-1.5h16c.828 0 1.5.672 1.5 1.5v10.4c0 .828-.672 1.5-1.5 1.5H8.702c-.568 0-1.119.193-1.562.548l-1.452 1.162z"/></clipPath></defs><path d="M5.688 22.215l-.022.017-.019.019c-.424.424-1.147.124-1.147-.474V8.605c0-.828.672-1.5 1.5-1.5h16c.828 0 1.5.672 1.5 1.5v10.4c0 .828-.672 1.5-1.5 1.5H8.702c-.568 0-1.119.193-1.562.548l-1.452 1.162z" fill="none" stroke="#000000"/><path clip-path="url(#clip_frame31_path_3)" d="M13.417 7.735c-3.734-5.379-8.945-2.241-11.084 0v17.932H24.5V7.735c-2.333 2.242-7.35 5.38-11.083 0z" fill="#000000"/><path d="M2.333 9.333h16.334m-16.334 0h16.334" fill="#000000" stroke="#ffffff" stroke-width="2.333333" stroke-dasharray="0.4061508438231739,15.927182494176828" stroke-dashoffset="16.333333"/><path d="M2.333 12.833h14" fill="#000000" stroke="#ffffff" stroke-width="2.333333" stroke-dasharray="0,14.000000003999999" stroke-dashoffset="14"/><path d="M2.333 16.333H14" fill="#000000" stroke="#ffffff" stroke-width="2.333333" stroke-dasharray="0,11.66666667" stroke-dashoffset="11.666667"/></g><g transform="translate(896)"><defs><clipPath id="clip_frame32_path_3"><path d="M5.688 22.215l-.022.017-.019.019c-.424.424-1.147.124-1.147-.474V8.605c0-.828.672-1.5 1.5-1.5h16c.828 0 1.5.672 1.5 1.5v10.4c0 .828-.672 1.5-1.5 1.5H8.702c-.568 0-1.119.193-1.562.548l-1.452 1.162z"/></clipPath></defs><path d="M5.688 22.215l-.022.017-.019.019c-.424.424-1.147.124-1.147-.474V8.605c0-.828.672-1.5 1.5-1.5h16c.828 0 1.5.672 1.5 1.5v10.4c0 .828-.672 1.5-1.5 1.5H8.702c-.568 0-1.119.193-1.562.548l-1.452 1.162z" fill="none" stroke="#000000"/><path clip-path="url(#clip_frame32_path_3)" d="M13.417 7.362c-3.734-5.492-8.945-2.288-11.084 0v18.305H24.5V7.362c-2.333 2.288-7.35 5.491-11.083 0z" fill="#000000"/><path d="M2.333 9.333h16.334m-16.334 0h16.334" fill="#000000" stroke="#ffffff" stroke-width="2.333333" stroke-dasharray="0.7598539127811578,15.573479425218844" stroke-dashoffset="16.333333"/><path d="M2.333 12.833h14" fill="#000000" stroke="#ffffff" stroke-width="2.333333" stroke-dasharray="0,14.000000003999999" stroke-dashoffset="14"/><path d="M2.333 16.333H14" fill="#000000" stroke="#ffffff" stroke-width="2.333333" stroke-dasharray="0,11.66666667" stroke-dashoffset="11.666667"/></g><g transform="translate(924)"><defs><clipPath id="clip_frame33_path_3"><path d="M5.688 22.215l-.022.017-.019.019c-.424.424-1.147.124-1.147-.474V8.605c0-.828.672-1.5 1.5-1.5h16c.828 0 1.5.672 1.5 1.5v10.4c0 .828-.672 1.5-1.5 1.5H8.702c-.568 0-1.119.193-1.562.548l-1.452 1.162z"/></clipPath></defs><path d="M5.688 22.215l-.022.017-.019.019c-.424.424-1.147.124-1.147-.474V8.605c0-.828.672-1.5 1.5-1.5h16c.828 0 1.5.672 1.5 1.5v10.4c0 .828-.672 1.5-1.5 1.5H8.702c-.568 0-1.119.193-1.562.548l-1.452 1.162z" fill="none" stroke="#000000"/><path clip-path="url(#clip_frame33_path_3)" d="M13.417 7.016c-3.734-5.595-8.945-2.33-11.084 0v18.651H24.5V7.016c-2.333 2.332-7.35 5.596-11.083 0z" fill="#000000"/><path d="M2.333 9.333h16.334m-16.334 0h16.334" fill="#000000" stroke="#ffffff" stroke-width="2.333333" stroke-dasharray="1.2671933980298495,15.066139939970153" stroke-dashoffset="16.333333"/><path d="M2.333 12.833h14" fill="#000000" stroke="#ffffff" stroke-width="2.333333" stroke-dasharray="0,14.000000003999999" stroke-dashoffset="14"/><path d="M2.333 16.333H14" fill="#000000" stroke="#ffffff" stroke-width="2.333333" stroke-dasharray="0,11.66666667" stroke-dashoffset="11.666667"/></g><g transform="translate(952)"><defs><clipPath id="clip_frame34_path_3"><path d="M5.688 22.215l-.022.017-.019.019c-.424.424-1.147.124-1.147-.474V8.605c0-.828.672-1.5 1.5-1.5h16c.828 0 1.5.672 1.5 1.5v10.4c0 .828-.672 1.5-1.5 1.5H8.702c-.568 0-1.119.193-1.562.548l-1.452 1.162z"/></clipPath></defs><path d="M5.688 22.215l-.022.017-.019.019c-.424.424-1.147.124-1.147-.474V8.605c0-.828.672-1.5 1.5-1.5h16c.828 0 1.5.672 1.5 1.5v10.4c0 .828-.672 1.5-1.5 1.5H8.702c-.568 0-1.119.193-1.562.548l-1.452 1.162z" fill="none" stroke="#000000"/><path clip-path="url(#clip_frame34_path_3)" d="M13.417 6.697c-3.734-5.691-8.945-2.37-11.084 0v18.97H24.5V6.697c-2.333 2.372-7.35 5.691-11.083 0z" fill="#000000"/><path d="M2.333 9.333h16.334m-16.334 0h16.334" fill="#000000" stroke="#ffffff" stroke-width="2.333333" stroke-dasharray="1.962047515628103,14.3712858223719" stroke-dashoffset="16.333333"/><path d="M2.333 12.833h14" fill="#000000" stroke="#ffffff" stroke-width="2.333333" stroke-dasharray="0,14.000000003999999" stroke-dashoffset="14"/><path d="M2.333 16.333H14" fill="#000000" stroke="#ffffff" stroke-width="2.333333" stroke-dasharray="0,11.66666667" stroke-dashoffset="11.666667"/></g><g transform="translate(980)"><defs><clipPath id="clip_frame35_path_3"><path d="M5.688 22.215l-.022.017-.019.019c-.424.424-1.147.124-1.147-.474V8.605c0-.828.672-1.5 1.5-1.5h16c.828 0 1.5.672 1.5 1.5v10.4c0 .828-.672 1.5-1.5 1.5H8.702c-.568 0-1.119.193-1.562.548l-1.452 1.162z"/></clipPath></defs><path d="M5.688 22.215l-.022.017-.019.019c-.424.424-1.147.124-1.147-.474V8.605c0-.828.672-1.5 1.5-1.5h16c.828 0 1.5.672 1.5 1.5v10.4c0 .828-.672 1.5-1.5 1.5H8.702c-.568 0-1.119.193-1.562.548l-1.452 1.162z" fill="none" stroke="#000000"/><path clip-path="url(#clip_frame35_path_3)" d="M13.417 6.402c-3.734-5.779-8.945-2.407-11.084 0v19.265H24.5V6.402c-2.333 2.409-7.35 5.78-11.083 0z" fill="#000000"/><path d="M2.333 9.333h16.334m-16.334 0h16.334" fill="#000000" stroke="#ffffff" stroke-width="2.333333" stroke-dasharray="2.874758552495485,13.458574785504519" stroke-dashoffset="16.333333"/><path d="M2.333 12.833h14" fill="#000000" stroke="#ffffff" stroke-width="2.333333" stroke-dasharray="0,14.000000003999999" stroke-dashoffset="14"/><path d="M2.333 16.333H14" fill="#000000" stroke="#ffffff" stroke-width="2.333333" stroke-dasharray="0,11.66666667" stroke-dashoffset="11.666667"/></g><g transform="translate(1008)"><defs><clipPath id="clip_frame36_path_3"><path d="M5.688 22.215l-.022.017-.019.019c-.424.424-1.147.124-1.147-.474V8.605c0-.828.672-1.5 1.5-1.5h16c.828 0 1.5.672 1.5 1.5v10.4c0 .828-.672 1.5-1.5 1.5H8.702c-.568 0-1.119.193-1.562.548l-1.452 1.162z"/></clipPath></defs><path d="M5.688 22.215l-.022.017-.019.019c-.424.424-1.147.124-1.147-.474V8.605c0-.828.672-1.5 1.5-1.5h16c.828 0 1.5.672 1.5 1.5v10.4c0 .828-.672 1.5-1.5 1.5H8.702c-.568 0-1.119.193-1.562.548l-1.452 1.162z" fill="none" stroke="#000000"/><path clip-path="url(#clip_frame36_path_3)" d="M13.417 6.13C9.683.269 4.472 3.688 2.333 6.13v19.537H24.5V6.13c-2.333 2.442-7.35 5.861-11.083 0z" fill="#000000"/><path d="M2.333 9.333h16.334m-16.334 0h16.334" fill="#000000" stroke="#ffffff" stroke-width="2.333333" stroke-dasharray="4.011562543209425,12.321770794790579" stroke-dashoffset="16.333333"/><path d="M2.333 12.833h14" fill="#000000" stroke="#ffffff" stroke-width="2.333333" stroke-dasharray="0.018945101111104413,13.981054902888895" stroke-dashoffset="14"/><path d="M2.333 16.333H14" fill="#000000" stroke="#ffffff" stroke-width="2.333333" stroke-dasharray="0,11.66666667" stroke-dashoffset="11.666667"/></g><g transform="translate(1036)"><defs><clipPath id="clip_frame37_path_3"><path d="M5.688 22.215l-.022.017-.019.019c-.424.424-1.147.124-1.147-.474V8.605c0-.828.672-1.5 1.5-1.5h16c.828 0 1.5.672 1.5 1.5v10.4c0 .828-.672 1.5-1.5 1.5H8.702c-.568 0-1.119.193-1.562.548l-1.452 1.162z"/></clipPath></defs><path d="M5.688 22.215l-.022.017-.019.019c-.424.424-1.147.124-1.147-.474V8.605c0-.828.672-1.5 1.5-1.5h16c.828 0 1.5.672 1.5 1.5v10.4c0 .828-.672 1.5-1.5 1.5H8.702c-.568 0-1.119.193-1.562.548l-1.452 1.162z" fill="none" stroke="#000000"/><path clip-path="url(#clip_frame37_path_3)" d="M13.417 5.878c-3.734-5.937-8.945-2.473-11.084 0v19.789H24.5V5.878c-2.333 2.474-7.35 5.937-11.083 0z" fill="#000000"/><path d="M2.333 9.333h16.334m-16.334 0h16.334" fill="#000000" stroke="#ffffff" stroke-width="2.333333" stroke-dasharray="5.324948808729509,11.008384529270494" stroke-dashoffset="16.333333"/><path d="M2.333 12.833h14" fill="#000000" stroke="#ffffff" stroke-width="2.333333" stroke-dasharray="0.17011265575618606,13.829887348243814" stroke-dashoffset="14"/><path d="M2.333 16.333H14" fill="#000000" stroke="#ffffff" stroke-width="2.333333" stroke-dasharray="0,11.66666667" stroke-dashoffset="11.666667"/></g><g transform="translate(1064)"><defs><clipPath id="clip_frame38_path_3"><path d="M5.688 22.215l-.022.017-.019.019c-.424.424-1.147.124-1.147-.474V8.605c0-.828.672-1.5 1.5-1.5h16c.828 0 1.5.672 1.5 1.5v10.4c0 .828-.672 1.5-1.5 1.5H8.702c-.568 0-1.119.193-1.562.548l-1.452 1.162z"/></clipPath></defs><path d="M5.688 22.215l-.022.017-.019.019c-.424.424-1.147.124-1.147-.474V8.605c0-.828.672-1.5 1.5-1.5h16c.828 0 1.5.672 1.5 1.5v10.4c0 .828-.672 1.5-1.5 1.5H8.702c-.568 0-1.119.193-1.562.548l-1.452 1.162z" fill="none" stroke="#000000"/><path clip-path="url(#clip_frame38_path_3)" d="M13.417 5.645c-3.734-6.006-8.945-2.502-11.084 0v20.022H24.5V5.645c-2.333 2.504-7.35 6.007-11.083 0z" fill="#000000"/><path d="M2.333 9.333h16.334m-16.334 0h16.334" fill="#000000" stroke="#ffffff" stroke-width="2.333333" stroke-dasharray="6.708416387833084,9.62491695016692" stroke-dashoffset="16.333333"/><path d="M2.333 12.833h14" fill="#000000" stroke="#ffffff" stroke-width="2.333333" stroke-dasharray="0.5160368608239441,13.483963143176055" stroke-dashoffset="14"/><path d="M2.333 16.333H14" fill="#000000" stroke="#ffffff" stroke-width="2.333333" stroke-dasharray="0,11.66666667" stroke-dashoffset="11.666667"/></g><g transform="translate(1092)"><defs><clipPath id="clip_frame39_path_3"><path d="M5.688 22.215l-.022.017-.019.019c-.424.424-1.147.124-1.147-.474V8.605c0-.828.672-1.5 1.5-1.5h16c.828 0 1.5.672 1.5 1.5v10.4c0 .828-.672 1.5-1.5 1.5H8.702c-.568 0-1.119.193-1.562.548l-1.452 1.162z"/></clipPath></defs><path d="M5.688 22.215l-.022.017-.019.019c-.424.424-1.147.124-1.147-.474V8.605c0-.828.672-1.5 1.5-1.5h16c.828 0 1.5.672 1.5 1.5v10.4c0 .828-.672 1.5-1.5 1.5H8.702c-.568 0-1.119.193-1.562.548l-1.452 1.162z" fill="none" stroke="#000000"/><path clip-path="url(#clip_frame39_path_3)" d="M13.417 5.431c-3.734-6.071-8.945-2.529-11.084 0v20.236H24.5V5.431c-2.333 2.53-7.35 6.071-11.083 0z" fill="#000000"/><path d="M2.333 9.333h16.334m-16.334 0h16.334" fill="#000000" stroke="#ffffff" stroke-width="2.333333" stroke-dasharray="8.044175921849963,8.28915741615004" stroke-dashoffset="16.333333"/><path d="M2.333 12.833h14" fill="#000000" stroke="#ffffff" stroke-width="2.333333" stroke-dasharray="1.1283141714983551,12.871685832501644" stroke-dashoffset="14"/><path d="M2.333 16.333H14" fill="#000000" stroke="#ffffff" stroke-width="2.333333" stroke-dasharray="0,11.66666667" stroke-dashoffset="11.666667"/></g><g transform="translate(1120)"><defs><clipPath id="clip_frame40_path_3"><path d="M5.688 22.215l-.022.017-.019.019c-.424.424-1.147.124-1.147-.474V8.605c0-.828.672-1.5 1.5-1.5h16c.828 0 1.5.672 1.5 1.5v10.4c0 .828-.672 1.5-1.5 1.5H8.702c-.568 0-1.119.193-1.562.548l-1.452 1.162z"/></clipPath></defs><path d="M5.688 22.215l-.022.017-.019.019c-.424.424-1.147.124-1.147-.474V8.605c0-.828.672-1.5 1.5-1.5h16c.828 0 1.5.672 1.5 1.5v10.4c0 .828-.672 1.5-1.5 1.5H8.702c-.568 0-1.119.193-1.562.548l-1.452 1.162z" fill="none" stroke="#000000"/><path clip-path="url(#clip_frame40_path_3)" d="M13.417 5.233c-3.734-6.13-8.945-2.554-11.084 0v20.434H24.5V5.233c-2.333 2.555-7.35 6.13-11.083 0z" fill="#000000"/><path d="M2.333 9.333h16.334m-16.334 0h16.334" fill="#000000" stroke="#ffffff" stroke-width="2.333333" stroke-dasharray="9.256982133759376,7.076351204240627" stroke-dashoffset="16.333333"/><path d="M2.333 12.833h14" fill="#000000" stroke="#ffffff" stroke-width="2.333333" stroke-dasharray="2.097485998914886,11.902514005085113" stroke-dashoffset="14"/><path d="M2.333 16.333H14" fill="#000000" stroke="#ffffff" stroke-width="2.333333" stroke-dasharray="0.001283267362146962,11.665383402637852" stroke-dashoffset="11.666667"/></g><g transform="translate(1148)"><defs><clipPath id="clip_frame41_path_3"><path d="M5.688 22.215l-.022.017-.019.019c-.424.424-1.147.124-1.147-.474V8.605c0-.828.672-1.5 1.5-1.5h16c.828 0 1.5.672 1.5 1.5v10.4c0 .828-.672 1.5-1.5 1.5H8.702c-.568 0-1.119.193-1.562.548l-1.452 1.162z"/></clipPath></defs><path d="M5.688 22.215l-.022.017-.019.019c-.424.424-1.147.124-1.147-.474V8.605c0-.828.672-1.5 1.5-1.5h16c.828 0 1.5.672 1.5 1.5v10.4c0 .828-.672 1.5-1.5 1.5H8.702c-.568 0-1.119.193-1.562.548l-1.452 1.162z" fill="none" stroke="#000000"/><path clip-path="url(#clip_frame41_path_3)" d="M13.417 5.051c-3.734-6.185-8.945-2.577-11.084 0v20.616H24.5V5.051c-2.333 2.577-7.35 6.185-11.083 0z" fill="#000000"/><path d="M2.333 9.333h16.334m-16.334 0h16.334" fill="#000000" stroke="#ffffff" stroke-width="2.333333" stroke-dasharray="10.32169835690104,6.011634981098963" stroke-dashoffset="16.333333"/><path d="M2.333 12.833h14" fill="#000000" stroke="#ffffff" stroke-width="2.333333" stroke-dasharray="3.484143058390535,10.515856945609462" stroke-dashoffset="14"/><path d="M2.333 16.333H14" fill="#000000" stroke="#ffffff" stroke-width="2.333333" stroke-dasharray="0.18107508658134946,11.485591583418651" stroke-dashoffset="11.666667"/></g><g transform="translate(1176)"><defs><clipPath id="clip_frame42_path_3"><path d="M5.688 22.215l-.022.017-.019.019c-.424.424-1.147.124-1.147-.474V8.605c0-.828.672-1.5 1.5-1.5h16c.828 0 1.5.672 1.5 1.5v10.4c0 .828-.672 1.5-1.5 1.5H8.702c-.568 0-1.119.193-1.562.548l-1.452 1.162z"/></clipPath></defs><path d="M5.688 22.215l-.022.017-.019.019c-.424.424-1.147.124-1.147-.474V8.605c0-.828.672-1.5 1.5-1.5h16c.828 0 1.5.672 1.5 1.5v10.4c0 .828-.672 1.5-1.5 1.5H8.702c-.568 0-1.119.193-1.562.548l-1.452 1.162z" fill="none" stroke="#000000"/><path clip-path="url(#clip_frame42_path_3)" d="M13.417 4.883c-3.734-6.235-8.945-2.597-11.084 0v20.784H24.5V4.883c-2.333 2.599-7.35 6.235-11.083 0z" fill="#000000"/><path d="M2.333 9.333h16.334m-16.334 0h16.334" fill="#000000" stroke="#ffffff" stroke-width="2.333333" stroke-dasharray="11.24275437446207,5.090578963537933" stroke-dashoffset="16.333333"/><path d="M2.333 12.833h14" fill="#000000" stroke="#ffffff" stroke-width="2.333333" stroke-dasharray="5.184439024455669,8.815560979544328" stroke-dashoffset="14"/><path d="M2.333 16.333H14" fill="#000000" stroke="#ffffff" stroke-width="2.333333" stroke-dasharray="0.7884141431413982,10.878252526858603" stroke-dashoffset="11.666667"/></g><g transform="translate(1204)"><defs><clipPath id="clip_frame43_path_3"><path d="M5.688 22.215l-.022.017-.019.019c-.424.424-1.147.124-1.147-.474V8.605c0-.828.672-1.5 1.5-1.5h16c.828 0 1.5.672 1.5 1.5v10.4c0 .828-.672 1.5-1.5 1.5H8.702c-.568 0-1.119.193-1.562.548l-1.452 1.162z"/></clipPath></defs><path d="M5.688 22.215l-.022.017-.019.019c-.424.424-1.147.124-1.147-.474V8.605c0-.828.672-1.5 1.5-1.5h16c.828 0 1.5.672 1.5 1.5v10.4c0 .828-.672 1.5-1.5 1.5H8.702c-.568 0-1.119.193-1.562.548l-1.452 1.162z" fill="none" stroke="#000000"/><path clip-path="url(#clip_frame43_path_3)" d="M13.417 4.729c-3.734-6.281-8.945-2.616-11.084 0v20.938H24.5V4.729c-2.333 2.618-7.35 6.282-11.083 0z" fill="#000000"/><path d="M2.333 9.333h16.334m-16.334 0h16.334" fill="#000000" stroke="#ffffff" stroke-width="2.333333" stroke-dasharray="12.03580169997567,4.297531638024333" stroke-dashoffset="16.333333"/><path d="M2.333 12.833h14" fill="#000000" stroke="#ffffff" stroke-width="2.333333" stroke-dasharray="6.899621425513122,7.100378578486877" stroke-dashoffset="14"/><path d="M2.333 16.333H14" fill="#000000" stroke="#ffffff" stroke-width="2.333333" stroke-dasharray="2.0777561065308503,9.588910563469149" stroke-dashoffset="11.666667"/></g><g transform="translate(1232)"><defs><clipPath id="clip_frame44_path_3"><path d="M5.688 22.215l-.022.017-.019.019c-.424.424-1.147.124-1.147-.474V8.605c0-.828.672-1.5 1.5-1.5h16c.828 0 1.5.672 1.5 1.5v10.4c0 .828-.672 1.5-1.5 1.5H8.702c-.568 0-1.119.193-1.562.548l-1.452 1.162z"/></clipPath></defs><path d="M5.688 22.215l-.022.017-.019.019c-.424.424-1.147.124-1.147-.474V8.605c0-.828.672-1.5 1.5-1.5h16c.828 0 1.5.672 1.5 1.5v10.4c0 .828-.672 1.5-1.5 1.5H8.702c-.568 0-1.119.193-1.562.548l-1.452 1.162z" fill="none" stroke="#000000"/><path clip-path="url(#clip_frame44_path_3)" d="M13.417 4.589c-3.734-6.324-8.945-2.634-11.084 0v21.078H24.5V4.589c-2.333 2.635-7.35 6.323-11.083 0z" fill="#000000"/><path d="M2.333 9.333h16.334m-16.334 0h16.334" fill="#000000" stroke="#ffffff" stroke-width="2.333333" stroke-dasharray="12.71844331963713,3.6148900183628734" stroke-dashoffset="16.333333"/><path d="M2.333 12.833h14" fill="#000000" stroke="#ffffff" stroke-width="2.333333" stroke-dasharray="8.39303478247444,5.606965221525559" stroke-dashoffset="14"/><path d="M2.333 16.333H14" fill="#000000" stroke="#ffffff" stroke-width="2.333333" stroke-dasharray="4.151720212827519,7.51494645717248" stroke-dashoffset="11.666667"/></g><g transform="translate(1260)"><defs><clipPath id="clip_frame45_path_3"><path d="M5.688 22.215l-.022.017-.019.019c-.424.424-1.147.124-1.147-.474V8.605c0-.828.672-1.5 1.5-1.5h16c.828 0 1.5.672 1.5 1.5v10.4c0 .828-.672 1.5-1.5 1.5H8.702c-.568 0-1.119.193-1.562.548l-1.452 1.162z"/></clipPath></defs><path d="M5.688 22.215l-.022.017-.019.019c-.424.424-1.147.124-1.147-.474V8.605c0-.828.672-1.5 1.5-1.5h16c.828 0 1.5.672 1.5 1.5v10.4c0 .828-.672 1.5-1.5 1.5H8.702c-.568 0-1.119.193-1.562.548l-1.452 1.162z" fill="none" stroke="#000000"/><path clip-path="url(#clip_frame45_path_3)" d="M13.417 4.46c-3.734-6.362-8.945-2.65-11.084 0v21.207H24.5V4.46c-2.333 2.652-7.35 6.362-11.083 0z" fill="#000000"/><path d="M2.333 9.333h16.334m-16.334 0h16.334" fill="#000000" stroke="#ffffff" stroke-width="2.333333" stroke-dasharray="13.306758488647413,3.02657484935259" stroke-dashoffset="16.333333"/><path d="M2.333 12.833h14" fill="#000000" stroke="#ffffff" stroke-width="2.333333" stroke-dasharray="9.61134256794442,4.388657436055578" stroke-dashoffset="14"/><path d="M2.333 16.333H14" fill="#000000" stroke="#ffffff" stroke-width="2.333333" stroke-dasharray="6.340857916813775,5.325808753186225" stroke-dashoffset="11.666667"/></g><g transform="translate(1288)"><defs><clipPath id="clip_frame46_path_3"><path d="M5.688 22.215l-.022.017-.019.019c-.424.424-1.147.124-1.147-.474V8.605c0-.828.672-1.5 1.5-1.5h16c.828 0 1.5.672 1.5 1.5v10.4c0 .828-.672 1.5-1.5 1.5H8.702c-.568 0-1.119.193-1.562.548l-1.452 1.162z"/></clipPath></defs><path d="M5.688 22.215l-.022.017-.019.019c-.424.424-1.147.124-1.147-.474V8.605c0-.828.672-1.5 1.5-1.5h16c.828 0 1.5.672 1.5 1.5v10.4c0 .828-.672 1.5-1.5 1.5H8.702c-.568 0-1.119.193-1.562.548l-1.452 1.162z" fill="none" stroke="#000000"/><path clip-path="url(#clip_frame46_path_3)" d="M13.417 4.344c-3.734-6.398-8.945-2.665-11.084 0v21.323H24.5V4.344c-2.333 2.665-7.35 6.397-11.083 0z" fill="#000000"/><path d="M2.333 9.333h16.334m-16.334 0h16.334" fill="#000000" stroke="#ffffff" stroke-width="2.333333" stroke-dasharray="13.814408751500075,2.518924586499928" stroke-dashoffset="16.333333"/><path d="M2.333 12.833h14" fill="#000000" stroke="#ffffff" stroke-width="2.333333" stroke-dasharray="10.588301765413217,3.4116982385867822" stroke-dashoffset="14"/><path d="M2.333 16.333H14" fill="#000000" stroke="#ffffff" stroke-width="2.333333" stroke-dasharray="8.026945501148044,3.6397211688519566" stroke-dashoffset="11.666667"/></g><g transform="translate(1316)"><defs><clipPath id="clip_frame47_path_3"><path d="M5.688 22.215l-.022.017-.019.019c-.424.424-1.147.124-1.147-.474V8.605c0-.828.672-1.5 1.5-1.5h16c.828 0 1.5.672 1.5 1.5v10.4c0 .828-.672 1.5-1.5 1.5H8.702c-.568 0-1.119.193-1.562.548l-1.452 1.162z"/></clipPath></defs><path d="M5.688 22.215l-.022.017-.019.019c-.424.424-1.147.124-1.147-.474V8.605c0-.828.672-1.5 1.5-1.5h16c.828 0 1.5.672 1.5 1.5v10.4c0 .828-.672 1.5-1.5 1.5H8.702c-.568 0-1.119.193-1.562.548l-1.452 1.162z" fill="none" stroke="#000000"/><path clip-path="url(#clip_frame47_path_3)" d="M13.417 4.238c-3.734-6.429-8.945-2.679-11.084 0v21.429H24.5V4.238c-2.333 2.679-7.35 6.428-11.083 0z" fill="#000000"/><path d="M2.333 9.333h16.334m-16.334 0h16.334" fill="#000000" stroke="#ffffff" stroke-width="2.333333" stroke-dasharray="14.252695517788931,2.0806378202110727" stroke-dashoffset="16.333333"/><path d="M2.333 12.833h14" fill="#000000" stroke="#ffffff" stroke-width="2.333333" stroke-dasharray="11.371379490639308,2.6286205133606915" stroke-dashoffset="14"/><path d="M2.333 16.333H14" fill="#000000" stroke="#ffffff" stroke-width="2.333333" stroke-dasharray="9.223511859352794,2.4431548106472065" stroke-dashoffset="11.666667"/></g><g transform="translate(1344)"><defs><clipPath id="clip_frame48_path_3"><path d="M5.688 22.215l-.022.017-.019.019c-.424.424-1.147.124-1.147-.474V8.605c0-.828.672-1.5 1.5-1.5h16c.828 0 1.5.672 1.5 1.5v10.4c0 .828-.672 1.5-1.5 1.5H8.702c-.568 0-1.119.193-1.562.548l-1.452 1.162z"/></clipPath></defs><path d="M5.688 22.215l-.022.017-.019.019c-.424.424-1.147.124-1.147-.474V8.605c0-.828.672-1.5 1.5-1.5h16c.828 0 1.5.672 1.5 1.5v10.4c0 .828-.672 1.5-1.5 1.5H8.702c-.568 0-1.119.193-1.562.548l-1.452 1.162z" fill="none" stroke="#000000"/><path clip-path="url(#clip_frame48_path_3)" d="M13.417 4.142c-3.734-6.457-8.945-2.69-11.084 0v21.525H24.5V4.142c-2.333 2.691-7.35 6.458-11.083 0z" fill="#000000"/><path d="M2.333 9.333h16.334m-16.334 0h16.334" fill="#000000" stroke="#ffffff" stroke-width="2.333333" stroke-dasharray="14.630897650287457,1.7024356877125464" stroke-dashoffset="16.333333"/><path d="M2.333 12.833h14" fill="#000000" stroke="#ffffff" stroke-width="2.333333" stroke-dasharray="12.000705798194156,1.9992942058058416" stroke-dashoffset="14"/><path d="M2.333 16.333H14" fill="#000000" stroke="#ffffff" stroke-width="2.333333" stroke-dasharray="10.071464490093453,1.5952021799065474" stroke-dashoffset="11.666667"/></g><g transform="translate(1372)"><defs><clipPath id="clip_frame49_path_3"><path d="M5.688 22.215l-.022.017-.019.019c-.424.424-1.147.124-1.147-.474V8.605c0-.828.672-1.5 1.5-1.5h16c.828 0 1.5.672 1.5 1.5v10.4c0 .828-.672 1.5-1.5 1.5H8.702c-.568 0-1.119.193-1.562.548l-1.452 1.162z"/></clipPath></defs><path d="M5.688 22.215l-.022.017-.019.019c-.424.424-1.147.124-1.147-.474V8.605c0-.828.672-1.5 1.5-1.5h16c.828 0 1.5.672 1.5 1.5v10.4c0 .828-.672 1.5-1.5 1.5H8.702c-.568 0-1.119.193-1.562.548l-1.452 1.162z" fill="none" stroke="#000000"/><path clip-path="url(#clip_frame49_path_3)" d="M13.417 4.056c-3.734-6.483-8.945-2.7-11.084 0v21.611H24.5V4.056c-2.333 2.702-7.35 6.484-11.083 0z" fill="#000000"/><path d="M2.333 9.333h16.334m-16.334 0h16.334" fill="#000000" stroke="#ffffff" stroke-width="2.333333" stroke-dasharray="14.956642937087265,1.3766904009127383" stroke-dashoffset="16.333333"/><path d="M2.333 12.833h14" fill="#000000" stroke="#ffffff" stroke-width="2.333333" stroke-dasharray="12.506861690115823,1.4931383138841752" stroke-dashoffset="14"/><path d="M2.333 16.333H14" fill="#000000" stroke="#ffffff" stroke-width="2.333333" stroke-dasharray="10.67361792793892,0.9930487420610791" stroke-dashoffset="11.666667"/></g><g transform="translate(1400)"><defs><clipPath id="clip_frame50_path_3"><path d="M5.688 22.215l-.022.017-.019.019c-.424.424-1.147.124-1.147-.474V8.605c0-.828.672-1.5 1.5-1.5h16c.828 0 1.5.672 1.5 1.5v10.4c0 .828-.672 1.5-1.5 1.5H8.702c-.568 0-1.119.193-1.562.548l-1.452 1.162z"/></clipPath></defs><path d="M5.688 22.215l-.022.017-.019.019c-.424.424-1.147.124-1.147-.474V8.605c0-.828.672-1.5 1.5-1.5h16c.828 0 1.5.672 1.5 1.5v10.4c0 .828-.672 1.5-1.5 1.5H8.702c-.568 0-1.119.193-1.562.548l-1.452 1.162z" fill="none" stroke="#000000"/><path clip-path="url(#clip_frame50_path_3)" d="M13.417 3.98c-3.734-6.506-8.945-2.71-11.084 0v21.687H24.5V3.98c-2.333 2.711-7.35 6.506-11.083 0z" fill="#000000"/><path d="M2.333 9.333h16.334m-16.334 0h16.334" fill="#000000" stroke="#ffffff" stroke-width="2.333333" stroke-dasharray="15.236235501213418,1.0970978367865838" stroke-dashoffset="16.333333"/><path d="M2.333 12.833h14" fill="#000000" stroke="#ffffff" stroke-width="2.333333" stroke-dasharray="12.912720616477223,1.0872793875227744" stroke-dashoffset="14"/><path d="M2.333 16.333H14" fill="#000000" stroke="#ffffff" stroke-width="2.333333" stroke-dasharray="11.095784506499758,0.5708821635002423" stroke-dashoffset="11.666667"/></g><g transform="translate(1428)"><defs><clipPath id="clip_frame51_path_3"><path d="M5.688 22.215l-.022.017-.019.019c-.424.424-1.147.124-1.147-.474V8.605c0-.828.672-1.5 1.5-1.5h16c.828 0 1.5.672 1.5 1.5v10.4c0 .828-.672 1.5-1.5 1.5H8.702c-.568 0-1.119.193-1.562.548l-1.452 1.162z"/></clipPath></defs><path d="M5.688 22.215l-.022.017-.019.019c-.424.424-1.147.124-1.147-.474V8.605c0-.828.672-1.5 1.5-1.5h16c.828 0 1.5.672 1.5 1.5v10.4c0 .828-.672 1.5-1.5 1.5H8.702c-.568 0-1.119.193-1.562.548l-1.452 1.162z" fill="none" stroke="#000000"/><path clip-path="url(#clip_frame51_path_3)" d="M13.417 3.913c-3.734-6.527-8.945-2.719-11.084 0v21.754H24.5V3.913c-2.333 2.72-7.35 6.526-11.083 0z" fill="#000000"/><path d="M2.333 9.333h16.334m-16.334 0h16.334" fill="#000000" stroke="#ffffff" stroke-width="2.333333" stroke-dasharray="15.474923026256757,0.8584103117432448" stroke-dashoffset="16.333333"/><path d="M2.333 12.833h14" fill="#000000" stroke="#ffffff" stroke-width="2.333333" stroke-dasharray="13.235514942842865,0.7644850611571333" stroke-dashoffset="14"/><path d="M2.333 16.333H14" fill="#000000" stroke="#ffffff" stroke-width="2.333333" stroke-dasharray="11.380853539563079,0.2858131304369202" stroke-dashoffset="11.666667"/></g><g transform="translate(1456)"><defs><clipPath id="clip_frame52_path_3"><path d="M5.688 22.215l-.022.017-.019.019c-.424.424-1.147.124-1.147-.474V8.605c0-.828.672-1.5 1.5-1.5h16c.828 0 1.5.672 1.5 1.5v10.4c0 .828-.672 1.5-1.5 1.5H8.702c-.568 0-1.119.193-1.562.548l-1.452 1.162z"/></clipPath></defs><path d="M5.688 22.215l-.022.017-.019.019c-.424.424-1.147.124-1.147-.474V8.605c0-.828.672-1.5 1.5-1.5h16c.828 0 1.5.672 1.5 1.5v10.4c0 .828-.672 1.5-1.5 1.5H8.702c-.568 0-1.119.193-1.562.548l-1.452 1.162z" fill="none" stroke="#000000"/><path clip-path="url(#clip_frame52_path_3)" d="M13.417 3.854c-3.734-6.544-8.945-2.726-11.084 0v21.813H24.5V3.854c-2.333 2.727-7.35 6.544-11.083 0z" fill="#000000"/><path d="M2.333 9.333h16.334m-16.334 0h16.334" fill="#000000" stroke="#ffffff" stroke-width="2.333333" stroke-dasharray="15.677108253966871,0.6562250840331307" stroke-dashoffset="16.333333"/><path d="M2.333 12.833h14" fill="#000000" stroke="#ffffff" stroke-width="2.333333" stroke-dasharray="13.488427941813937,0.5115720621860623" stroke-dashoffset="14"/><path d="M2.333 16.333H14" fill="#000000" stroke="#ffffff" stroke-width="2.333333" stroke-dasharray="11.557934353090474,0.10873231690952605" stroke-dashoffset="11.666667"/></g><g transform="translate(1484)"><defs><clipPath id="clip_frame53_path_3"><path d="M5.688 22.215l-.022.017-.019.019c-.424.424-1.147.124-1.147-.474V8.605c0-.828.672-1.5 1.5-1.5h16c.828 0 1.5.672 1.5 1.5v10.4c0 .828-.672 1.5-1.5 1.5H8.702c-.568 0-1.119.193-1.562.548l-1.452 1.162z"/></clipPath></defs><path d="M5.688 22.215l-.022.017-.019.019c-.424.424-1.147.124-1.147-.474V8.605c0-.828.672-1.5 1.5-1.5h16c.828 0 1.5.672 1.5 1.5v10.4c0 .828-.672 1.5-1.5 1.5H8.702c-.568 0-1.119.193-1.562.548l-1.452 1.162z" fill="none" stroke="#000000"/><path clip-path="url(#clip_frame53_path_3)" d="M13.417 3.803c-3.734-6.559-8.945-2.732-11.084 0v21.864H24.5V3.803c-2.333 2.734-7.35 6.559-11.083 0z" fill="#000000"/><path d="M2.333 9.333h16.334m-16.334 0h16.334" fill="#000000" stroke="#ffffff" stroke-width="2.333333" stroke-dasharray="15.84651450047847,0.4868188375215323" stroke-dashoffset="16.333333"/><path d="M2.333 12.833h14" fill="#000000" stroke="#ffffff" stroke-width="2.333333" stroke-dasharray="13.681720837974506,0.3182791660254925" stroke-dashoffset="14"/><path d="M2.333 16.333H14" fill="#000000" stroke="#ffffff" stroke-width="2.333333" stroke-dasharray="11.647590956888246,0.019075713111753163" stroke-dashoffset="11.666667"/></g><g transform="translate(1512)"><defs><clipPath id="clip_frame54_path_3"><path d="M5.688 22.215l-.022.017-.019.019c-.424.424-1.147.124-1.147-.474V8.605c0-.828.672-1.5 1.5-1.5h16c.828 0 1.5.672 1.5 1.5v10.4c0 .828-.672 1.5-1.5 1.5H8.702c-.568 0-1.119.193-1.562.548l-1.452 1.162z"/></clipPath></defs><path d="M5.688 22.215l-.022.017-.019.019c-.424.424-1.147.124-1.147-.474V8.605c0-.828.672-1.5 1.5-1.5h16c.828 0 1.5.672 1.5 1.5v10.4c0 .828-.672 1.5-1.5 1.5H8.702c-.568 0-1.119.193-1.562.548l-1.452 1.162z" fill="none" stroke="#000000"/><path clip-path="url(#clip_frame54_path_3)" d="M13.417 3.76c-3.734-6.572-8.945-2.738-11.084 0v21.907H24.5V3.76c-2.333 2.739-7.35 6.572-11.083 0z" fill="#000000"/><path d="M2.333 9.333h16.334m-16.334 0h16.334" fill="#000000" stroke="#ffffff" stroke-width="2.333333" stroke-dasharray="15.986314945676165,0.3470183923238381" stroke-dashoffset="16.333333"/><path d="M2.333 12.833h14" fill="#000000" stroke="#ffffff" stroke-width="2.333333" stroke-dasharray="13.823516470985318,0.17648353301468142" stroke-dashoffset="14"/><path d="M2.333 16.333H14" fill="#000000" stroke="#ffffff" stroke-width="2.333333"/></g><g transform="translate(1540)"><defs><clipPath id="clip_frame55_path_3"><path d="M5.688 22.215l-.022.017-.019.019c-.424.424-1.147.124-1.147-.474V8.605c0-.828.672-1.5 1.5-1.5h16c.828 0 1.5.672 1.5 1.5v10.4c0 .828-.672 1.5-1.5 1.5H8.702c-.568 0-1.119.193-1.562.548l-1.452 1.162z"/></clipPath></defs><path d="M5.688 22.215l-.022.017-.019.019c-.424.424-1.147.124-1.147-.474V8.605c0-.828.672-1.5 1.5-1.5h16c.828 0 1.5.672 1.5 1.5v10.4c0 .828-.672 1.5-1.5 1.5H8.702c-.568 0-1.119.193-1.562.548l-1.452 1.162z" fill="none" stroke="#000000"/><path clip-path="url(#clip_frame55_path_3)" d="M13.417 3.724c-3.734-6.582-8.945-2.742-11.084 0v21.943H24.5V3.724c-2.333 2.744-7.35 6.583-11.083 0z" fill="#000000"/><path d="M2.333 9.333h16.334m-16.334 0h16.334" fill="#000000" stroke="#ffffff" stroke-width="2.333333" stroke-dasharray="16.099233922361663,0.23409941563833872" stroke-dashoffset="16.333333"/><path d="M2.333 12.833h14" fill="#000000" stroke="#ffffff" stroke-width="2.333333" stroke-dasharray="13.920346605403047,0.07965339859695172" stroke-dashoffset="14"/><path d="M2.333 16.333H14" fill="#000000" stroke="#ffffff" stroke-width="2.333333"/></g><g transform="translate(1568)"><defs><clipPath id="clip_frame56_path_3"><path d="M5.688 22.215l-.022.017-.019.019c-.424.424-1.147.124-1.147-.474V8.605c0-.828.672-1.5 1.5-1.5h16c.828 0 1.5.672 1.5 1.5v10.4c0 .828-.672 1.5-1.5 1.5H8.702c-.568 0-1.119.193-1.562.548l-1.452 1.162z"/></clipPath></defs><path d="M5.688 22.215l-.022.017-.019.019c-.424.424-1.147.124-1.147-.474V8.605c0-.828.672-1.5 1.5-1.5h16c.828 0 1.5.672 1.5 1.5v10.4c0 .828-.672 1.5-1.5 1.5H8.702c-.568 0-1.119.193-1.562.548l-1.452 1.162z" fill="none" stroke="#000000"/><path clip-path="url(#clip_frame56_path_3)" d="M13.417 3.696C9.683-2.895 4.472.95 2.333 3.696v21.971H24.5V3.696c-2.333 2.747-7.35 6.591-11.083 0z" fill="#000000"/><path d="M2.333 9.333h16.334m-16.334 0h16.334" fill="#000000" stroke="#ffffff" stroke-width="2.333333" stroke-dasharray="16.18762670312173,0.1457066348782727" stroke-dashoffset="16.333333"/><path d="M2.333 12.833h14" fill="#000000" stroke="#ffffff" stroke-width="2.333333" stroke-dasharray="13.97753908423648,0.022460919763518477" stroke-dashoffset="14"/><path d="M2.333 16.333H14" fill="#000000" stroke="#ffffff" stroke-width="2.333333"/></g><g transform="translate(1596)"><defs><clipPath id="clip_frame57_path_3"><path d="M5.688 22.215l-.022.017-.019.019c-.424.424-1.147.124-1.147-.474V8.605c0-.828.672-1.5 1.5-1.5h16c.828 0 1.5.672 1.5 1.5v10.4c0 .828-.672 1.5-1.5 1.5H8.702c-.568 0-1.119.193-1.562.548l-1.452 1.162z"/></clipPath></defs><path d="M5.688 22.215l-.022.017-.019.019c-.424.424-1.147.124-1.147-.474V8.605c0-.828.672-1.5 1.5-1.5h16c.828 0 1.5.672 1.5 1.5v10.4c0 .828-.672 1.5-1.5 1.5H8.702c-.568 0-1.119.193-1.562.548l-1.452 1.162z" fill="none" stroke="#000000"/><path clip-path="url(#clip_frame57_path_3)" d="M13.417 3.674c-3.734-6.598-8.945-2.749-11.084 0v21.993H24.5V3.674c-2.333 2.75-7.35 6.598-11.083 0z" fill="#000000"/><path d="M2.333 9.333h16.334m-16.334 0h16.334" fill="#000000" stroke="#ffffff" stroke-width="2.333333" stroke-dasharray="16.25354277357201,0.07979056442799104" stroke-dashoffset="16.333333"/><path d="M2.333 12.833h14" fill="#000000" stroke="#ffffff" stroke-width="2.333333" stroke-dasharray="13.999496023789607,0.0005039802103908847" stroke-dashoffset="14"/><path d="M2.333 16.333H14" fill="#000000" stroke="#ffffff" stroke-width="2.333333"/></g><g transform="translate(1624)"><defs><clipPath id="clip_frame58_path_3"><path d="M5.688 22.215l-.022.017-.019.019c-.424.424-1.147.124-1.147-.474V8.605c0-.828.672-1.5 1.5-1.5h16c.828 0 1.5.672 1.5 1.5v10.4c0 .828-.672 1.5-1.5 1.5H8.702c-.568 0-1.119.193-1.562.548l-1.452 1.162z"/></clipPath></defs><path d="M5.688 22.215l-.022.017-.019.019c-.424.424-1.147.124-1.147-.474V8.605c0-.828.672-1.5 1.5-1.5h16c.828 0 1.5.672 1.5 1.5v10.4c0 .828-.672 1.5-1.5 1.5H8.702c-.568 0-1.119.193-1.562.548l-1.452 1.162z" fill="none" stroke="#000000"/><path clip-path="url(#clip_frame58_path_3)" d="M13.417 3.659c-3.734-6.603-8.945-2.751-11.084 0v22.008H24.5V3.659c-2.333 2.751-7.35 6.602-11.083 0z" fill="#000000"/><path d="M2.333 9.333h16.334m-16.334 0h16.334" fill="#000000" stroke="#ffffff" stroke-width="2.333333" stroke-dasharray="16.298776377466393,0.03455696053361041" stroke-dashoffset="16.333333"/><path d="M2.333 12.833h14M2.333 16.333H14" fill="#000000" stroke="#ffffff" stroke-width="2.333333"/></g><g transform="translate(1652)"><defs><clipPath id="clip_frame59_path_3"><path d="M5.688 22.215l-.022.017-.019.019c-.424.424-1.147.124-1.147-.474V8.605c0-.828.672-1.5 1.5-1.5h16c.828 0 1.5.672 1.5 1.5v10.4c0 .828-.672 1.5-1.5 1.5H8.702c-.568 0-1.119.193-1.562.548l-1.452 1.162z"/></clipPath></defs><path d="M5.688 22.215l-.022.017-.019.019c-.424.424-1.147.124-1.147-.474V8.605c0-.828.672-1.5 1.5-1.5h16c.828 0 1.5.672 1.5 1.5v10.4c0 .828-.672 1.5-1.5 1.5H8.702c-.568 0-1.119.193-1.562.548l-1.452 1.162z" fill="none" stroke="#000000"/><path clip-path="url(#clip_frame59_path_3)" d="M13.417 3.65C9.683-2.955 4.472.898 2.333 3.65v22.017H24.5V3.65c-2.333 2.753-7.35 6.605-11.083 0z" fill="#000000"/><path d="M2.333 9.333h16.334m-16.334 0h16.334" fill="#000000" stroke="#ffffff" stroke-width="2.333333" stroke-dasharray="16.324907197080933,0.008426140919069151" stroke-dashoffset="16.333333"/><path d="M2.333 12.833h14M2.333 16.333H14" fill="#000000" stroke="#ffffff" stroke-width="2.333333"/></g><g transform="translate(1680)"><defs><clipPath id="clip_frame60_path_3"><path d="M5.688 22.215l-.022.017-.019.019c-.424.424-1.147.124-1.147-.474V8.605c0-.828.672-1.5 1.5-1.5h16c.828 0 1.5.672 1.5 1.5v10.4c0 .828-.672 1.5-1.5 1.5H8.702c-.568 0-1.119.193-1.562.548l-1.452 1.162z"/></clipPath></defs><path d="M5.688 22.215l-.022.017-.019.019c-.424.424-1.147.124-1.147-.474V8.605c0-.828.672-1.5 1.5-1.5h16c.828 0 1.5.672 1.5 1.5v10.4c0 .828-.672 1.5-1.5 1.5H8.702c-.568 0-1.119.193-1.562.548l-1.452 1.162z" fill="none" stroke="#000000"/><path clip-path="url(#clip_frame60_path_3)" d="M13.417 3.647c-3.734-6.606-8.945-2.752-11.084 0v22.02H24.5V3.647c-2.333 2.753-7.35 6.606-11.083 0z" fill="#000000"/><path d="M2.333 9.333h16.334m-16.334 0h16.334M2.333 12.833h14M2.333 16.333H14" fill="#000000" stroke="#ffffff" stroke-width="2.333333"/></g></svg>